<?xml version="1.0" encoding="UTF-8" standalone="no"?>
<!DOCTYPE svg PUBLIC "-//W3C//DTD SVG 1.1//EN" "http://www.w3.org/Graphics/SVG/1.1/DTD/svg11.dtd">
<svg xmlns="http://www.w3.org/2000/svg" version="1.1" viewBox="0.00 0.00 400.00 400.00">
<g stroke-width="2.00" fill="none" stroke-linecap="butt">
<path stroke="#856364" vector-effect="non-scaling-stroke" d="
  M 206.58 124.54
  Q 206.75 124.62 206.68 124.81
  Q 203.60 132.77 199.98 139.10
  A 0.44 0.44 0.0 0 0 200.56 139.71
  Q 203.21 138.36 206.14 136.13
  C 212.54 131.24 213.76 123.19 211.38 115.83
  Q 211.33 115.68 211.04 115.53
  Q 210.74 115.38 210.59 115.44
  C 203.30 118.01 197.63 123.86 197.63 131.91
  Q 197.63 135.60 198.16 138.52
  A 0.44 0.44 0.0 0 0 199.00 138.61
  Q 201.84 131.90 206.30 124.62
  Q 206.40 124.45 206.58 124.54"
/>
<path stroke="#856364" vector-effect="non-scaling-stroke" d="
  M 187.75 130.79
  Q 188.29 130.36 195.63 139.91
  A 0.32 0.32 0.0 0 0 196.20 139.71
  Q 196.20 126.35 182.76 124.23
  Q 182.73 124.23 182.65 124.27
  Q 182.60 124.30 182.55 124.34
  Q 182.51 124.38 182.47 124.42
  Q 182.41 124.49 182.40 124.52
  Q 181.61 138.10 194.67 140.95
  A 0.32 0.32 0.0 0 0 194.98 140.43
  Q 187.21 131.23 187.75 130.79"
/>
<path stroke="#856364" vector-effect="non-scaling-stroke" d="
  M 126.34 175.84
  A 0.53 0.53 0.0 0 0 126.87 175.31
  L 126.87 167.37
  A 0.53 0.53 0.0 0 0 126.34 166.84
  L 109.88 166.84
  A 0.53 0.53 0.0 0 1 109.35 166.31
  L 109.35 155.74
  A 0.53 0.53 0.0 0 1 109.88 155.21
  L 129.02 155.21
  A 0.53 0.53 0.0 0 0 129.55 154.68
  L 129.55 146.65
  A 0.53 0.53 0.0 0 0 129.02 146.12
  L 99.89 146.12
  A 0.53 0.53 0.0 0 0 99.36 146.65
  L 99.36 192.76
  A 0.53 0.53 0.0 0 0 99.89 193.29
  L 108.82 193.29
  A 0.53 0.53 0.0 0 0 109.35 192.76
  L 109.35 176.37
  A 0.53 0.53 0.0 0 1 109.88 175.84
  L 126.34 175.84"
/>
<path stroke="#856364" vector-effect="non-scaling-stroke" d="
  M 202.7704 146.4988
  A 0.40 0.40 0.0 0 0 202.3711 146.0981
  L 193.1711 146.0820
  A 0.40 0.40 0.0 0 0 192.7704 146.4813
  L 192.6896 192.8012
  A 0.40 0.40 0.0 0 0 193.0889 193.2019
  L 202.2889 193.2180
  A 0.40 0.40 0.0 0 0 202.6896 192.8187
  L 202.7704 146.4988"
/>
<path stroke="#856364" vector-effect="non-scaling-stroke" d="
  M 283.00 193.28
  Q 287.45 193.29 287.48 193.28
  A 0.71 0.70 81.8 0 0 287.98 192.60
  L 288.00 155.82
  A 0.60 0.60 0.0 0 1 288.60 155.22
  L 299.86 155.22
  A 0.81 0.81 0.0 0 0 300.67 154.41
  L 300.67 146.92
  A 0.81 0.80 89.6 0 0 299.85 146.11
  Q 291.71 146.23 283.05 146.17
  Q 274.38 146.21 266.24 146.08
  A 0.81 0.80 -89.5 0 0 265.42 146.88
  L 265.40 154.37
  A 0.81 0.81 0.0 0 0 266.21 155.18
  L 277.47 155.21
  A 0.60 0.60 0.0 0 1 278.07 155.81
  L 278.01 192.59
  A 0.71 0.70 -81.7 0 0 278.52 193.27
  Q 278.54 193.28 283.00 193.28"
/>
<path stroke="#6e5556" vector-effect="non-scaling-stroke" d="
  M 302.77 207.95
  A 0.89 0.89 0.0 0 0 301.88 207.06
  L 98.02 207.06
  A 0.89 0.89 0.0 0 0 97.13 207.95
  L 97.13 207.99
  A 0.89 0.89 0.0 0 0 98.02 208.88
  L 301.88 208.88
  A 0.89 0.89 0.0 0 0 302.77 207.99
  L 302.77 207.95"
/>
<path stroke="#856364" vector-effect="non-scaling-stroke" d="
  M 124.76 230.45
  Q 126.85 230.45 127.35 230.46
  A 0.74 0.73 -14.5 0 1 127.99 230.83
  L 130.07 234.44
  A 0.43 0.42 -14.3 0 0 130.44 234.65
  L 130.73 234.65
  A 0.57 0.57 0.0 0 0 131.26 233.87
  Q 128.17 226.21 124.97 218.47
  Q 124.93 218.40 124.78 218.40
  Q 124.63 218.40 124.60 218.47
  Q 121.37 226.20 118.25 233.85
  A 0.57 0.57 0.0 0 0 118.78 234.63
  L 119.07 234.63
  A 0.43 0.42 14.5 0 0 119.44 234.42
  L 121.53 230.82
  A 0.74 0.73 14.7 0 1 122.17 230.45
  Q 122.67 230.44 124.76 230.45"
/>
<path stroke="#856364" vector-effect="non-scaling-stroke" d="
  M 150.79 222.36
  A 0.74 0.74 0.0 0 0 151.59 221.17
  Q 148.36 217.59 143.97 219.45
  Q 141.40 220.54 141.37 222.99
  C 141.29 228.86 153.31 226.30 150.47 232.02
  A 1.62 1.61 2.0 0 1 149.64 232.79
  Q 145.16 234.62 142.62 231.08
  A 0.74 0.74 0.0 0 0 141.29 231.66
  C 142.16 235.86 150.84 235.84 152.29 232.05
  C 155.20 224.42 142.11 227.46 143.19 222.42
  C 143.79 219.64 148.23 219.90 149.76 221.52
  Q 150.43 222.22 150.79 222.36"
/>
<path stroke="#856364" vector-effect="non-scaling-stroke" d="
  M 249.20 226.82
  A 7.92 7.92 0.0 0 0 241.28 218.90
  A 7.92 7.92 0.0 0 0 233.36 226.82
  A 7.92 7.92 0.0 0 0 241.28 234.74
  A 7.92 7.92 0.0 0 0 249.20 226.82"
/>
<path stroke="#856364" vector-effect="non-scaling-stroke" d="
  M 276.22 226.82
  A 7.94 7.94 0.0 0 0 268.28 218.88
  A 7.94 7.94 0.0 0 0 260.34 226.82
  A 7.94 7.94 0.0 0 0 268.28 234.76
  A 7.94 7.94 0.0 0 0 276.22 226.82"
/>
<path stroke="#856364" vector-effect="non-scaling-stroke" d="
  M 167.20 234.65
  Q 167.86 234.65 167.91 233.94
  Q 168.08 231.78 168.01 221.28
  A 0.63 0.63 0.0 0 1 168.66 220.64
  L 171.18 220.69
  A 0.80 0.79 1.4 0 0 172.00 219.92
  L 172.01 219.83
  A 0.80 0.80 0.0 0 0 171.22 219.02
  Q 169.34 219.01 167.27 218.99
  Q 165.20 218.99 163.32 218.99
  A 0.80 0.80 0.0 0 0 162.52 219.79
  L 162.53 219.88
  A 0.80 0.79 -0.9 0 0 163.35 220.66
  L 165.87 220.63
  A 0.63 0.63 0.0 0 1 166.51 221.27
  Q 166.35 231.77 166.50 233.94
  Q 166.54 234.65 167.20 234.65"
/>
<path stroke="#856364" vector-effect="non-scaling-stroke" d="
  M 102.29 221.09
  A 0.44 0.44 0.0 0 1 102.73 220.64
  L 109.46 220.62
  A 0.47 0.47 0.0 0 0 109.92 220.16
  L 109.91 219.92
  A 0.75 0.74 89.2 0 0 109.17 219.18
  L 101.29 219.21
  A 0.68 0.68 0.0 0 0 100.61 219.89
  L 100.57 233.98
  A 0.71 0.71 0.0 0 0 101.24 234.69
  L 101.49 234.70
  A 0.79 0.79 0.0 0 0 102.30 233.91
  L 102.33 228.22
  A 0.57 0.56 0.4 0 1 102.90 227.66
  L 108.91 227.76
  A 0.74 0.74 0.0 0 0 109.66 227.05
  L 109.66 226.78
  A 0.68 0.67 -0.0 0 0 108.97 226.11
  L 102.74 226.18
  A 0.40 0.40 0.0 0 1 102.34 225.78
  L 102.29 221.09"
/>
<path stroke="#856364" vector-effect="non-scaling-stroke" d="
  M 222.54 226.44
  A 0.30 0.30 0.0 0 0 222.24 226.14
  L 215.58 226.14
  A 0.30 0.30 0.0 0 1 215.28 225.84
  L 215.28 220.94
  A 0.30 0.30 0.0 0 1 215.58 220.64
  L 222.49 220.64
  A 0.30 0.30 0.0 0 0 222.79 220.34
  L 222.79 219.53
  A 0.30 0.30 0.0 0 0 222.49 219.23
  L 213.89 219.23
  A 0.30 0.30 0.0 0 0 213.59 219.53
  L 213.59 234.31
  A 0.30 0.30 0.0 0 0 213.89 234.61
  L 215.03 234.61
  A 0.30 0.30 0.0 0 0 215.33 234.31
  L 215.33 228.01
  A 0.30 0.30 0.0 0 1 215.63 227.71
  L 222.24 227.71
  A 0.30 0.30 0.0 0 0 222.54 227.41
  L 222.54 226.44"
/>
<path stroke="#856364" vector-effect="non-scaling-stroke" d="
  M 287.95 219.77
  L 287.87 233.99
  A 0.58 0.58 0.0 0 0 288.45 234.57
  L 292.29 234.59
  A 7.64 7.34 0.3 0 0 299.97 227.29
  L 299.97 226.59
  A 7.64 7.34 0.3 0 0 292.37 219.21
  L 288.53 219.19
  A 0.58 0.58 0.0 0 0 287.95 219.77"
/>
<path stroke="#6e5556" vector-effect="non-scaling-stroke" d="
  M 302.87 245.08
  A 0.74 0.74 0.0 0 0 302.13 244.34
  L 98.09 244.34
  A 0.74 0.74 0.0 0 0 97.35 245.08
  L 97.35 245.10
  A 0.74 0.74 0.0 0 0 98.09 245.84
  L 302.13 245.84
  A 0.74 0.74 0.0 0 0 302.87 245.10
  L 302.87 245.08"
/>
<path stroke="#856364" vector-effect="non-scaling-stroke" d="
  M 244.78 262.34
  Q 245.99 262.34 246.30 262.26
  A 0.65 0.64 -20.1 0 1 247.04 262.60
  L 248.46 265.35
  A 0.15 0.13 75.1 0 0 248.58 265.43
  L 248.95 265.43
  A 0.38 0.38 0.0 0 0 249.30 264.91
  Q 247.21 259.74 245.15 254.59
  Q 245.07 254.39 244.80 254.39
  Q 244.53 254.39 244.45 254.59
  Q 242.36 259.73 240.24 264.88
  A 0.38 0.38 0.0 0 0 240.58 265.41
  L 240.95 265.41
  A 0.15 0.13 -74.8 0 0 241.07 265.33
  L 242.51 262.59
  A 0.65 0.64 20.4 0 1 243.25 262.25
  Q 243.56 262.34 244.78 262.34"
/>
<path stroke="#856364" vector-effect="non-scaling-stroke" d="
  M 142.62 259.90
  Q 142.59 263.16 145.63 264.90
  A 4.04 3.77 -21.3 0 0 146.61 265.29
  Q 150.14 266.14 152.38 262.60
  A 0.37 0.37 0.0 0 0 152.01 262.03
  C 151.03 262.18 150.63 263.26 149.68 263.68
  C 146.76 264.98 143.66 263.32 143.69 259.91
  C 143.72 256.51 146.85 254.90 149.75 256.25
  C 150.69 256.69 151.07 257.78 152.05 257.95
  A 0.37 0.37 0.0 0 0 152.43 257.38
  Q 150.25 253.80 146.70 254.59
  A 4.04 3.77 22.3 0 0 145.72 254.96
  Q 142.65 256.65 142.62 259.90"
/>
<path stroke="#856364" vector-effect="non-scaling-stroke" d="
  M 166.01 259.93
  A 5.43 5.43 0.0 0 0 160.58 254.50
  A 5.43 5.43 0.0 0 0 155.15 259.93
  A 5.43 5.43 0.0 0 0 160.58 265.36
  A 5.43 5.43 0.0 0 0 166.01 259.93"
/>
<path stroke="#856364" vector-effect="non-scaling-stroke" d="
  M 175.02 259.87
  A 0.53 0.52 0.1 0 0 174.49 259.35
  L 170.66 259.34
  A 0.64 0.63 -89.9 0 1 170.04 258.70
  L 170.04 256.36
  A 0.65 0.65 0.0 0 1 170.69 255.71
  L 174.90 255.72
  A 0.41 0.40 0.1 0 0 175.31 255.32
  L 175.31 254.99
  A 0.48 0.48 0.0 0 0 174.83 254.51
  L 169.58 254.50
  A 0.80 0.80 0.0 0 0 168.78 255.30
  L 168.77 264.85
  A 0.46 0.46 0.0 0 0 169.23 265.31
  L 169.60 265.31
  A 0.44 0.43 -89.9 0 0 170.03 264.88
  L 170.03 261.07
  A 0.51 0.50 0.1 0 1 170.54 260.57
  L 174.68 260.57
  A 0.35 0.34 -89.9 0 0 175.02 260.23
  L 175.02 259.87"
/>
<path stroke="#856364" vector-effect="non-scaling-stroke" d="
  M 184.34 259.89
  A 0.53 0.52 -0.0 0 0 183.81 259.37
  L 179.97 259.37
  A 0.64 0.63 -90.0 0 1 179.34 258.73
  L 179.34 256.38
  A 0.65 0.65 0.0 0 1 179.99 255.73
  L 184.21 255.73
  A 0.41 0.40 -0.0 0 0 184.62 255.33
  L 184.62 255.00
  A 0.48 0.48 0.0 0 0 184.14 254.52
  L 178.88 254.52
  A 0.80 0.80 0.0 0 0 178.08 255.32
  L 178.08 264.90
  A 0.46 0.46 0.0 0 0 178.54 265.36
  L 178.91 265.36
  A 0.44 0.43 90.0 0 0 179.34 264.92
  L 179.34 261.10
  A 0.51 0.50 -0.0 0 1 179.85 260.60
  L 184.00 260.60
  A 0.35 0.34 -90.0 0 0 184.34 260.25
  L 184.34 259.89"
/>
<path stroke="#856364" vector-effect="non-scaling-stroke" d="
  M 186.99 259.97
  Q 187.02 264.04 187.02 264.65
  A 0.79 0.79 0.0 0 0 187.81 265.43
  L 192.95 265.43
  A 0.40 0.40 0.0 0 0 193.35 265.03
  L 193.35 264.73
  A 0.59 0.59 0.0 0 0 192.76 264.14
  L 188.87 264.14
  A 0.78 0.77 90.0 0 1 188.10 263.36
  L 188.10 261.41
  A 0.81 0.80 -88.2 0 1 188.95 260.60
  Q 193.32 260.87 193.17 259.97
  Q 193.31 259.00 188.94 259.31
  A 0.81 0.80 87.6 0 1 188.08 258.51
  L 188.06 256.57
  A 0.78 0.77 89.4 0 1 188.83 255.78
  L 192.72 255.74
  A 0.59 0.59 0.0 0 0 193.30 255.14
  L 193.30 254.84
  A 0.40 0.40 0.0 0 0 192.89 254.44
  L 187.75 254.50
  A 0.79 0.79 0.0 0 0 186.97 255.29
  Q 186.97 255.90 186.99 259.97"
/>
<path stroke="#856364" vector-effect="non-scaling-stroke" d="
  M 196.70 259.86
  Q 196.68 263.88 196.68 264.49
  A 0.78 0.78 0.0 0 0 197.45 265.27
  L 202.52 265.32
  A 0.40 0.40 0.0 0 0 202.92 264.93
  L 202.93 264.63
  A 0.58 0.58 0.0 0 0 202.35 264.04
  L 198.51 264.00
  A 0.77 0.76 -89.4 0 1 197.75 263.23
  L 197.77 261.30
  A 0.80 0.79 -87.6 0 1 198.62 260.51
  Q 202.94 260.82 202.80 259.93
  Q 202.95 258.97 198.63 259.24
  A 0.80 0.79 88.2 0 1 197.79 258.44
  L 197.79 256.51
  A 0.77 0.76 90.0 0 1 198.55 255.74
  L 202.39 255.74
  A 0.58 0.58 0.0 0 0 202.97 255.16
  L 202.97 254.86
  A 0.40 0.40 0.0 0 0 202.58 254.47
  L 197.50 254.47
  A 0.78 0.78 0.0 0 0 196.72 255.24
  Q 196.72 255.85 196.70 259.86"
/>
<path stroke="#856364" vector-effect="non-scaling-stroke" d="
  M 212.00 255.47
  L 212.00 264.54
  A 0.76 0.75 -86.1 0 0 212.65 265.29
  C 215.66 265.71 220.09 264.72 218.46 260.70
  Q 218.33 260.38 218.05 260.12
  Q 217.71 259.82 217.61 259.63
  A 1.01 1.01 0.0 0 1 217.59 258.72
  C 219.34 255.05 215.44 254.28 212.71 254.65
  A 0.83 0.83 0.0 0 0 212.00 255.47"
/>
<path stroke="#856364" vector-effect="non-scaling-stroke" d="
  M 222.71 261.69
  A 0.68 0.67 -64.6 0 1 223.91 261.26
  L 227.25 265.37
  A 0.50 0.50 0.0 0 0 227.95 265.45
  L 228.18 265.26
  A 0.31 0.30 -40.4 0 0 228.22 264.83
  L 225.71 261.73
  A 0.55 0.55 0.0 0 1 225.93 260.87
  Q 228.89 259.69 228.07 256.70
  A 2.96 2.96 0.0 0 0 225.21 254.51
  L 223.09 254.51
  A 1.65 1.64 -90.0 0 0 221.45 256.16
  L 221.45 264.82
  A 0.54 0.53 90.0 0 0 221.98 265.36
  L 222.29 265.36
  A 0.42 0.42 0.0 0 0 222.71 264.94
  L 222.71 261.69"
/>
<path stroke="#856364" vector-effect="non-scaling-stroke" d="
  M 231.16 259.94
  Q 231.16 263.96 231.17 264.57
  A 0.78 0.78 0.0 0 0 231.94 265.35
  L 237.03 265.38
  A 0.40 0.40 0.0 0 0 237.43 264.98
  L 237.43 264.69
  A 0.58 0.58 0.0 0 0 236.85 264.10
  L 233.00 264.08
  A 0.77 0.76 -89.7 0 1 232.24 263.30
  L 232.25 261.37
  A 0.80 0.79 -87.8 0 1 233.10 260.58
  Q 237.42 260.87 237.28 259.97
  Q 237.43 259.01 233.10 259.30
  A 0.80 0.79 87.9 0 1 232.25 258.50
  L 232.24 256.57
  A 0.77 0.76 89.7 0 1 233.00 255.80
  L 236.85 255.78
  A 0.58 0.58 0.0 0 0 237.43 255.19
  L 237.43 254.89
  A 0.40 0.40 0.0 0 0 237.03 254.50
  L 231.95 254.52
  A 0.78 0.78 0.0 0 0 231.17 255.30
  Q 231.17 255.91 231.16 259.94"
/>
<path stroke="#856364" vector-effect="non-scaling-stroke" d="
  M 252.13 259.96
  Q 252.15 261.98 252.14 264.90
  A 0.40 0.40 0.0 0 0 252.94 264.98
  Q 253.19 263.76 252.87 261.66
  A 0.40 0.40 0.0 0 1 253.58 261.35
  L 256.85 265.37
  A 0.32 0.32 0.0 0 0 257.30 265.42
  L 257.52 265.24
  A 0.41 0.41 0.0 0 0 257.59 264.67
  Q 255.95 262.49 254.26 260.24
  Q 254.21 260.17 254.20 259.95
  Q 254.20 259.74 254.26 259.66
  Q 255.92 257.40 257.54 255.20
  A 0.41 0.41 0.0 0 0 257.46 254.63
  L 257.24 254.46
  A 0.32 0.32 0.0 0 0 256.79 254.51
  L 253.57 258.56
  A 0.40 0.40 0.0 0 1 252.85 258.26
  Q 253.15 256.16 252.89 254.94
  A 0.40 0.40 0.0 0 0 252.09 255.03
  Q 252.12 257.95 252.13 259.96"
/>
<path stroke="#856364" vector-effect="non-scaling-stroke" d="
  M 139.97 259.88
  A 1.74 1.74 0.0 0 0 138.23 258.14
  A 1.74 1.74 0.0 0 0 136.49 259.88
  A 1.74 1.74 0.0 0 0 138.23 261.62
  A 1.74 1.74 0.0 0 0 139.97 259.88"
/>
<path stroke="#856364" vector-effect="non-scaling-stroke" d="
  M 263.25 259.83
  A 1.66 1.66 0.0 0 0 261.59 258.17
  A 1.66 1.66 0.0 0 0 259.93 259.83
  A 1.66 1.66 0.0 0 0 261.59 261.49
  A 1.66 1.66 0.0 0 0 263.25 259.83"
/>
<path stroke="#856364" vector-effect="non-scaling-stroke" d="
  M 185.83 275.78
  C 183.11 273.87 180.19 277.66 181.68 280.03
  C 182.97 282.10 184.49 281.67 186.95 281.16
  A 0.56 0.56 0.0 0 0 187.40 280.61
  L 187.40 271.72
  A 0.44 0.44 0.0 0 0 186.53 271.60
  Q 186.10 273.10 186.46 275.39
  A 0.40 0.40 0.0 0 1 185.83 275.78"
/>
<path stroke="#856364" vector-effect="non-scaling-stroke" d="
  M 170.84 280.18
  L 170.74 276.64
  A 1.28 1.28 0.0 0 0 169.43 275.39
  L 167.60 275.44
  A 3.13 3.05 -1.5 0 0 164.55 278.57
  A 3.13 3.05 -1.5 0 0 167.76 281.54
  L 169.59 281.49
  A 1.28 1.28 0.0 0 0 170.84 280.18"
/>
<path stroke="#6e5556" vector-effect="non-scaling-stroke" d="
  M 175.10 280.72
  L 175.10 277.75
  A 1.21 1.21 0.0 0 1 176.31 276.54
  L 176.93 276.54
  A 0.98 0.98 0.0 0 1 177.91 277.52
  L 177.91 280.85
  A 0.51 0.51 0.0 0 0 178.42 281.36
  L 178.84 281.36
  A 0.38 0.38 0.0 0 0 179.22 280.98
  L 179.22 277.68
  A 2.16 2.15 -0.0 0 0 177.06 275.53
  L 174.46 275.53
  A 0.62 0.62 0.0 0 0 173.84 276.16
  L 173.91 280.73
  A 0.60 0.59 -45.4 0 0 175.10 280.72"
/>
<path stroke="#6e5556" vector-effect="non-scaling-stroke" d="
  M 196.59 280.83
  L 196.59 277.44
  A 1.01 1.00 82.5 0 1 197.33 276.47
  Q 199.87 275.75 199.13 280.60
  A 0.55 0.53 -76.8 0 0 199.49 281.20
  L 199.70 281.25
  A 0.59 0.58 8.1 0 0 200.44 280.70
  L 200.47 277.88
  A 1.42 1.40 -9.0 0 1 201.44 276.56
  L 201.48 276.55
  A 0.93 0.93 0.0 0 1 202.72 277.38
  L 202.90 280.90
  A 0.51 0.51 0.0 0 0 203.90 281.00
  C 204.38 279.16 204.53 273.79 200.80 275.69
  A 1.20 1.19 45.3 0 1 199.70 275.68
  Q 198.50 275.05 195.88 275.61
  A 0.66 0.66 0.0 0 0 195.36 276.23
  Q 195.18 280.00 195.48 280.99
  A 0.57 0.57 0.0 0 0 196.59 280.83"
/>
<path stroke="#6e5556" vector-effect="non-scaling-stroke" d="
  M 212.92 278.45
  A 3.22 3.22 0.0 0 0 209.70 275.23
  A 3.22 3.22 0.0 0 0 206.48 278.45
  A 3.22 3.22 0.0 0 0 209.70 281.67
  A 3.22 3.22 0.0 0 0 212.92 278.45"
/>
<path stroke="#6e5556" vector-effect="non-scaling-stroke" d="
  M 216.24 281.24
  A 0.39 0.38 -5.0 0 0 216.62 280.79
  Q 215.87 276.76 218.26 276.65
  A 0.50 0.50 0.0 0 0 218.74 276.15
  L 218.74 275.87
  A 0.40 0.40 0.0 0 0 218.34 275.47
  L 216.02 275.47
  A 0.73 0.73 0.0 0 0 215.29 276.20
  L 215.29 280.72
  A 0.52 0.52 0.0 0 0 215.81 281.24
  L 216.24 281.24"
/>
<path stroke="#6e5556" vector-effect="non-scaling-stroke" d="
  M 225.53 279.47
  Q 223.77 280.83 221.95 280.04
  A 0.57 0.57 0.0 0 1 222.18 278.94
  L 225.37 278.94
  A 1.11 1.11 0.0 0 0 226.29 277.21
  C 222.62 271.81 217.13 278.91 222.11 281.39
  Q 223.61 282.14 225.75 280.82
  A 0.17 0.16 80.1 0 0 225.84 280.69
  L 225.99 279.74
  A 0.29 0.29 0.0 0 0 225.53 279.47"
/>
<path stroke="#856364" vector-effect="non-scaling-stroke" d="
  M 122.27 228.29
  A 0.33 0.33 0.0 0 0 122.58 228.73
  L 126.97 228.73
  A 0.33 0.33 0.0 0 0 127.27 228.28
  L 125.07 222.62
  A 0.33 0.33 0.0 0 0 124.46 222.62
  L 122.27 228.29"
/>
<path stroke="#856364" vector-effect="non-scaling-stroke" d="
  M 247.59 226.81
  A 6.30 6.30 0.0 0 0 241.29 220.51
  A 6.30 6.30 0.0 0 0 234.99 226.81
  A 6.30 6.30 0.0 0 0 241.29 233.11
  A 6.30 6.30 0.0 0 0 247.59 226.81"
/>
<path stroke="#856364" vector-effect="non-scaling-stroke" d="
  M 274.58 226.79
  A 6.29 6.29 0.0 0 0 268.29 220.50
  A 6.29 6.29 0.0 0 0 262.00 226.79
  A 6.29 6.29 0.0 0 0 268.29 233.08
  A 6.29 6.29 0.0 0 0 274.58 226.79"
/>
<path stroke="#856364" vector-effect="non-scaling-stroke" d="
  M 289.57 221.43
  L 289.61 232.31
  A 0.58 0.58 0.0 0 0 290.19 232.88
  L 292.25 232.88
  A 6.16 5.87 -0.2 0 0 298.39 226.98
  L 298.39 226.68
  A 6.16 5.87 -0.2 0 0 292.21 220.84
  L 290.15 220.84
  A 0.58 0.58 0.0 0 0 289.57 221.43"
/>
<path stroke="#856364" vector-effect="non-scaling-stroke" d="
  M 244.77 261.27
  Q 245.50 261.26 245.90 261.15
  A 0.53 0.52 -16.6 0 0 246.26 260.49
  Q 245.25 257.21 244.72 257.22
  Q 244.19 257.22 243.27 260.53
  A 0.53 0.52 15.2 0 0 243.65 261.18
  Q 244.05 261.28 244.77 261.27"
/>
<path stroke="#856364" vector-effect="non-scaling-stroke" d="
  M 164.77 259.90
  A 4.26 4.26 0.0 0 0 160.51 255.64
  A 4.26 4.26 0.0 0 0 156.25 259.90
  A 4.26 4.26 0.0 0 0 160.51 264.16
  A 4.26 4.26 0.0 0 0 164.77 259.90"
/>
<path stroke="#856364" vector-effect="non-scaling-stroke" d="
  M 213.04 256.38
  L 212.97 258.14
  A 0.67 0.67 0.0 0 0 213.61 258.83
  L 214.63 258.87
  A 2.11 1.39 2.2 0 0 216.79 257.56
  L 216.80 257.24
  A 2.11 1.39 2.2 0 0 214.75 255.77
  L 213.73 255.73
  A 0.67 0.67 0.0 0 0 213.04 256.38"
/>
<path stroke="#856364" vector-effect="non-scaling-stroke" d="
  M 213.06 260.69
  L 213.08 263.51
  A 0.54 0.54 0.0 0 0 213.63 264.05
  L 215.33 264.03
  A 2.32 1.84 -0.5 0 0 217.63 262.17
  L 217.63 261.95
  A 2.32 1.84 -0.5 0 0 215.29 260.13
  L 213.59 260.15
  A 0.54 0.54 0.0 0 0 213.06 260.69"
/>
<path stroke="#856364" vector-effect="non-scaling-stroke" d="
  M 222.65 256.20
  L 222.81 259.76
  A 0.33 0.33 0.0 0 0 223.15 260.07
  L 224.59 260.01
  A 2.67 1.96 -2.5 0 0 227.17 257.93
  L 227.16 257.63
  A 2.67 1.96 -2.5 0 0 224.41 255.79
  L 222.97 255.85
  A 0.33 0.33 0.0 0 0 222.65 256.20"
/>
<path stroke="#856364" vector-effect="non-scaling-stroke" d="
  M 186.44 278.50
  A 2.01 2.01 0.0 0 0 184.43 276.49
  A 2.01 2.01 0.0 0 0 182.42 278.50
  A 2.01 2.01 0.0 0 0 184.43 280.51
  A 2.01 2.01 0.0 0 0 186.44 278.50"
/>
<path stroke="#856364" vector-effect="non-scaling-stroke" d="
  M 169.72 278.51
  A 2.00 2.00 0.0 0 0 167.72 276.51
  A 2.00 2.00 0.0 0 0 165.72 278.51
  A 2.00 2.00 0.0 0 0 167.72 280.51
  A 2.00 2.00 0.0 0 0 169.72 278.51"
/>
<path stroke="#6e5556" vector-effect="non-scaling-stroke" d="
  M 211.65 278.44
  A 1.97 1.97 0.0 0 0 209.68 276.47
  A 1.97 1.97 0.0 0 0 207.71 278.44
  A 1.97 1.97 0.0 0 0 209.68 280.41
  A 1.97 1.97 0.0 0 0 211.65 278.44"
/>
<path stroke="#6e5556" vector-effect="non-scaling-stroke" d="
  M 223.37 277.95
  Q 224.07 277.94 224.61 277.96
  A 0.39 0.39 0.0 0 0 224.94 277.33
  Q 224.21 276.33 223.35 276.34
  Q 222.49 276.36 221.78 277.38
  A 0.39 0.39 0.0 0 0 222.14 278.00
  Q 222.67 277.96 223.37 277.95"
/>
</g>
<path fill="#262626" d="
  M 400.00 0.00
  L 400.00 400.00
  L 0.00 400.00
  L 0.00 0.00
  L 400.00 0.00
  Z
  M 206.58 124.54
  Q 206.75 124.62 206.68 124.81
  Q 203.60 132.77 199.98 139.10
  A 0.44 0.44 0.0 0 0 200.56 139.71
  Q 203.21 138.36 206.14 136.13
  C 212.54 131.24 213.76 123.19 211.38 115.83
  Q 211.33 115.68 211.04 115.53
  Q 210.74 115.38 210.59 115.44
  C 203.30 118.01 197.63 123.86 197.63 131.91
  Q 197.63 135.60 198.16 138.52
  A 0.44 0.44 0.0 0 0 199.00 138.61
  Q 201.84 131.90 206.30 124.62
  Q 206.40 124.45 206.58 124.54
  Z
  M 187.75 130.79
  Q 188.29 130.36 195.63 139.91
  A 0.32 0.32 0.0 0 0 196.20 139.71
  Q 196.20 126.35 182.76 124.23
  Q 182.73 124.23 182.65 124.27
  Q 182.60 124.30 182.55 124.34
  Q 182.51 124.38 182.47 124.42
  Q 182.41 124.49 182.40 124.52
  Q 181.61 138.10 194.67 140.95
  A 0.32 0.32 0.0 0 0 194.98 140.43
  Q 187.21 131.23 187.75 130.79
  Z
  M 126.34 175.84
  A 0.53 0.53 0.0 0 0 126.87 175.31
  L 126.87 167.37
  A 0.53 0.53 0.0 0 0 126.34 166.84
  L 109.88 166.84
  A 0.53 0.53 0.0 0 1 109.35 166.31
  L 109.35 155.74
  A 0.53 0.53 0.0 0 1 109.88 155.21
  L 129.02 155.21
  A 0.53 0.53 0.0 0 0 129.55 154.68
  L 129.55 146.65
  A 0.53 0.53 0.0 0 0 129.02 146.12
  L 99.89 146.12
  A 0.53 0.53 0.0 0 0 99.36 146.65
  L 99.36 192.76
  A 0.53 0.53 0.0 0 0 99.89 193.29
  L 108.82 193.29
  A 0.53 0.53 0.0 0 0 109.35 192.76
  L 109.35 176.37
  A 0.53 0.53 0.0 0 1 109.88 175.84
  L 126.34 175.84
  Z
  M 202.7704 146.4988
  A 0.40 0.40 0.0 0 0 202.3711 146.0981
  L 193.1711 146.0820
  A 0.40 0.40 0.0 0 0 192.7704 146.4813
  L 192.6896 192.8012
  A 0.40 0.40 0.0 0 0 193.0889 193.2019
  L 202.2889 193.2180
  A 0.40 0.40 0.0 0 0 202.6896 192.8187
  L 202.7704 146.4988
  Z
  M 283.00 193.28
  Q 287.45 193.29 287.48 193.28
  A 0.71 0.70 81.8 0 0 287.98 192.60
  L 288.00 155.82
  A 0.60 0.60 0.0 0 1 288.60 155.22
  L 299.86 155.22
  A 0.81 0.81 0.0 0 0 300.67 154.41
  L 300.67 146.92
  A 0.81 0.80 89.6 0 0 299.85 146.11
  Q 291.71 146.23 283.05 146.17
  Q 274.38 146.21 266.24 146.08
  A 0.81 0.80 -89.5 0 0 265.42 146.88
  L 265.40 154.37
  A 0.81 0.81 0.0 0 0 266.21 155.18
  L 277.47 155.21
  A 0.60 0.60 0.0 0 1 278.07 155.81
  L 278.01 192.59
  A 0.71 0.70 -81.7 0 0 278.52 193.27
  Q 278.54 193.28 283.00 193.28
  Z
  M 302.77 207.95
  A 0.89 0.89 0.0 0 0 301.88 207.06
  L 98.02 207.06
  A 0.89 0.89 0.0 0 0 97.13 207.95
  L 97.13 207.99
  A 0.89 0.89 0.0 0 0 98.02 208.88
  L 301.88 208.88
  A 0.89 0.89 0.0 0 0 302.77 207.99
  L 302.77 207.95
  Z
  M 124.76 230.45
  Q 126.85 230.45 127.35 230.46
  A 0.74 0.73 -14.5 0 1 127.99 230.83
  L 130.07 234.44
  A 0.43 0.42 -14.3 0 0 130.44 234.65
  L 130.73 234.65
  A 0.57 0.57 0.0 0 0 131.26 233.87
  Q 128.17 226.21 124.97 218.47
  Q 124.93 218.40 124.78 218.40
  Q 124.63 218.40 124.60 218.47
  Q 121.37 226.20 118.25 233.85
  A 0.57 0.57 0.0 0 0 118.78 234.63
  L 119.07 234.63
  A 0.43 0.42 14.5 0 0 119.44 234.42
  L 121.53 230.82
  A 0.74 0.73 14.7 0 1 122.17 230.45
  Q 122.67 230.44 124.76 230.45
  Z
  M 150.79 222.36
  A 0.74 0.74 0.0 0 0 151.59 221.17
  Q 148.36 217.59 143.97 219.45
  Q 141.40 220.54 141.37 222.99
  C 141.29 228.86 153.31 226.30 150.47 232.02
  A 1.62 1.61 2.0 0 1 149.64 232.79
  Q 145.16 234.62 142.62 231.08
  A 0.74 0.74 0.0 0 0 141.29 231.66
  C 142.16 235.86 150.84 235.84 152.29 232.05
  C 155.20 224.42 142.11 227.46 143.19 222.42
  C 143.79 219.64 148.23 219.90 149.76 221.52
  Q 150.43 222.22 150.79 222.36
  Z
  M 249.20 226.82
  A 7.92 7.92 0.0 0 0 241.28 218.90
  A 7.92 7.92 0.0 0 0 233.36 226.82
  A 7.92 7.92 0.0 0 0 241.28 234.74
  A 7.92 7.92 0.0 0 0 249.20 226.82
  Z
  M 276.22 226.82
  A 7.94 7.94 0.0 0 0 268.28 218.88
  A 7.94 7.94 0.0 0 0 260.34 226.82
  A 7.94 7.94 0.0 0 0 268.28 234.76
  A 7.94 7.94 0.0 0 0 276.22 226.82
  Z
  M 167.20 234.65
  Q 167.86 234.65 167.91 233.94
  Q 168.08 231.78 168.01 221.28
  A 0.63 0.63 0.0 0 1 168.66 220.64
  L 171.18 220.69
  A 0.80 0.79 1.4 0 0 172.00 219.92
  L 172.01 219.83
  A 0.80 0.80 0.0 0 0 171.22 219.02
  Q 169.34 219.01 167.27 218.99
  Q 165.20 218.99 163.32 218.99
  A 0.80 0.80 0.0 0 0 162.52 219.79
  L 162.53 219.88
  A 0.80 0.79 -0.9 0 0 163.35 220.66
  L 165.87 220.63
  A 0.63 0.63 0.0 0 1 166.51 221.27
  Q 166.35 231.77 166.50 233.94
  Q 166.54 234.65 167.20 234.65
  Z
  M 102.29 221.09
  A 0.44 0.44 0.0 0 1 102.73 220.64
  L 109.46 220.62
  A 0.47 0.47 0.0 0 0 109.92 220.16
  L 109.91 219.92
  A 0.75 0.74 89.2 0 0 109.17 219.18
  L 101.29 219.21
  A 0.68 0.68 0.0 0 0 100.61 219.89
  L 100.57 233.98
  A 0.71 0.71 0.0 0 0 101.24 234.69
  L 101.49 234.70
  A 0.79 0.79 0.0 0 0 102.30 233.91
  L 102.33 228.22
  A 0.57 0.56 0.4 0 1 102.90 227.66
  L 108.91 227.76
  A 0.74 0.74 0.0 0 0 109.66 227.05
  L 109.66 226.78
  A 0.68 0.67 -0.0 0 0 108.97 226.11
  L 102.74 226.18
  A 0.40 0.40 0.0 0 1 102.34 225.78
  L 102.29 221.09
  Z
  M 222.54 226.44
  A 0.30 0.30 0.0 0 0 222.24 226.14
  L 215.58 226.14
  A 0.30 0.30 0.0 0 1 215.28 225.84
  L 215.28 220.94
  A 0.30 0.30 0.0 0 1 215.58 220.64
  L 222.49 220.64
  A 0.30 0.30 0.0 0 0 222.79 220.34
  L 222.79 219.53
  A 0.30 0.30 0.0 0 0 222.49 219.23
  L 213.89 219.23
  A 0.30 0.30 0.0 0 0 213.59 219.53
  L 213.59 234.31
  A 0.30 0.30 0.0 0 0 213.89 234.61
  L 215.03 234.61
  A 0.30 0.30 0.0 0 0 215.33 234.31
  L 215.33 228.01
  A 0.30 0.30 0.0 0 1 215.63 227.71
  L 222.24 227.71
  A 0.30 0.30 0.0 0 0 222.54 227.41
  L 222.54 226.44
  Z
  M 287.95 219.77
  L 287.87 233.99
  A 0.58 0.58 0.0 0 0 288.45 234.57
  L 292.29 234.59
  A 7.64 7.34 0.3 0 0 299.97 227.29
  L 299.97 226.59
  A 7.64 7.34 0.3 0 0 292.37 219.21
  L 288.53 219.19
  A 0.58 0.58 0.0 0 0 287.95 219.77
  Z
  M 302.87 245.08
  A 0.74 0.74 0.0 0 0 302.13 244.34
  L 98.09 244.34
  A 0.74 0.74 0.0 0 0 97.35 245.08
  L 97.35 245.10
  A 0.74 0.74 0.0 0 0 98.09 245.84
  L 302.13 245.84
  A 0.74 0.74 0.0 0 0 302.87 245.10
  L 302.87 245.08
  Z
  M 244.78 262.34
  Q 245.99 262.34 246.30 262.26
  A 0.65 0.64 -20.1 0 1 247.04 262.60
  L 248.46 265.35
  A 0.15 0.13 75.1 0 0 248.58 265.43
  L 248.95 265.43
  A 0.38 0.38 0.0 0 0 249.30 264.91
  Q 247.21 259.74 245.15 254.59
  Q 245.07 254.39 244.80 254.39
  Q 244.53 254.39 244.45 254.59
  Q 242.36 259.73 240.24 264.88
  A 0.38 0.38 0.0 0 0 240.58 265.41
  L 240.95 265.41
  A 0.15 0.13 -74.8 0 0 241.07 265.33
  L 242.51 262.59
  A 0.65 0.64 20.4 0 1 243.25 262.25
  Q 243.56 262.34 244.78 262.34
  Z
  M 142.62 259.90
  Q 142.59 263.16 145.63 264.90
  A 4.04 3.77 -21.3 0 0 146.61 265.29
  Q 150.14 266.14 152.38 262.60
  A 0.37 0.37 0.0 0 0 152.01 262.03
  C 151.03 262.18 150.63 263.26 149.68 263.68
  C 146.76 264.98 143.66 263.32 143.69 259.91
  C 143.72 256.51 146.85 254.90 149.75 256.25
  C 150.69 256.69 151.07 257.78 152.05 257.95
  A 0.37 0.37 0.0 0 0 152.43 257.38
  Q 150.25 253.80 146.70 254.59
  A 4.04 3.77 22.3 0 0 145.72 254.96
  Q 142.65 256.65 142.62 259.90
  Z
  M 166.01 259.93
  A 5.43 5.43 0.0 0 0 160.58 254.50
  A 5.43 5.43 0.0 0 0 155.15 259.93
  A 5.43 5.43 0.0 0 0 160.58 265.36
  A 5.43 5.43 0.0 0 0 166.01 259.93
  Z
  M 175.02 259.87
  A 0.53 0.52 0.1 0 0 174.49 259.35
  L 170.66 259.34
  A 0.64 0.63 -89.9 0 1 170.04 258.70
  L 170.04 256.36
  A 0.65 0.65 0.0 0 1 170.69 255.71
  L 174.90 255.72
  A 0.41 0.40 0.1 0 0 175.31 255.32
  L 175.31 254.99
  A 0.48 0.48 0.0 0 0 174.83 254.51
  L 169.58 254.50
  A 0.80 0.80 0.0 0 0 168.78 255.30
  L 168.77 264.85
  A 0.46 0.46 0.0 0 0 169.23 265.31
  L 169.60 265.31
  A 0.44 0.43 -89.9 0 0 170.03 264.88
  L 170.03 261.07
  A 0.51 0.50 0.1 0 1 170.54 260.57
  L 174.68 260.57
  A 0.35 0.34 -89.9 0 0 175.02 260.23
  L 175.02 259.87
  Z
  M 184.34 259.89
  A 0.53 0.52 -0.0 0 0 183.81 259.37
  L 179.97 259.37
  A 0.64 0.63 -90.0 0 1 179.34 258.73
  L 179.34 256.38
  A 0.65 0.65 0.0 0 1 179.99 255.73
  L 184.21 255.73
  A 0.41 0.40 -0.0 0 0 184.62 255.33
  L 184.62 255.00
  A 0.48 0.48 0.0 0 0 184.14 254.52
  L 178.88 254.52
  A 0.80 0.80 0.0 0 0 178.08 255.32
  L 178.08 264.90
  A 0.46 0.46 0.0 0 0 178.54 265.36
  L 178.91 265.36
  A 0.44 0.43 90.0 0 0 179.34 264.92
  L 179.34 261.10
  A 0.51 0.50 -0.0 0 1 179.85 260.60
  L 184.00 260.60
  A 0.35 0.34 -90.0 0 0 184.34 260.25
  L 184.34 259.89
  Z
  M 186.99 259.97
  Q 187.02 264.04 187.02 264.65
  A 0.79 0.79 0.0 0 0 187.81 265.43
  L 192.95 265.43
  A 0.40 0.40 0.0 0 0 193.35 265.03
  L 193.35 264.73
  A 0.59 0.59 0.0 0 0 192.76 264.14
  L 188.87 264.14
  A 0.78 0.77 90.0 0 1 188.10 263.36
  L 188.10 261.41
  A 0.81 0.80 -88.2 0 1 188.95 260.60
  Q 193.32 260.87 193.17 259.97
  Q 193.31 259.00 188.94 259.31
  A 0.81 0.80 87.6 0 1 188.08 258.51
  L 188.06 256.57
  A 0.78 0.77 89.4 0 1 188.83 255.78
  L 192.72 255.74
  A 0.59 0.59 0.0 0 0 193.30 255.14
  L 193.30 254.84
  A 0.40 0.40 0.0 0 0 192.89 254.44
  L 187.75 254.50
  A 0.79 0.79 0.0 0 0 186.97 255.29
  Q 186.97 255.90 186.99 259.97
  Z
  M 196.70 259.86
  Q 196.68 263.88 196.68 264.49
  A 0.78 0.78 0.0 0 0 197.45 265.27
  L 202.52 265.32
  A 0.40 0.40 0.0 0 0 202.92 264.93
  L 202.93 264.63
  A 0.58 0.58 0.0 0 0 202.35 264.04
  L 198.51 264.00
  A 0.77 0.76 -89.4 0 1 197.75 263.23
  L 197.77 261.30
  A 0.80 0.79 -87.6 0 1 198.62 260.51
  Q 202.94 260.82 202.80 259.93
  Q 202.95 258.97 198.63 259.24
  A 0.80 0.79 88.2 0 1 197.79 258.44
  L 197.79 256.51
  A 0.77 0.76 90.0 0 1 198.55 255.74
  L 202.39 255.74
  A 0.58 0.58 0.0 0 0 202.97 255.16
  L 202.97 254.86
  A 0.40 0.40 0.0 0 0 202.58 254.47
  L 197.50 254.47
  A 0.78 0.78 0.0 0 0 196.72 255.24
  Q 196.72 255.85 196.70 259.86
  Z
  M 212.00 255.47
  L 212.00 264.54
  A 0.76 0.75 -86.1 0 0 212.65 265.29
  C 215.66 265.71 220.09 264.72 218.46 260.70
  Q 218.33 260.38 218.05 260.12
  Q 217.71 259.82 217.61 259.63
  A 1.01 1.01 0.0 0 1 217.59 258.72
  C 219.34 255.05 215.44 254.28 212.71 254.65
  A 0.83 0.83 0.0 0 0 212.00 255.47
  Z
  M 222.71 261.69
  A 0.68 0.67 -64.6 0 1 223.91 261.26
  L 227.25 265.37
  A 0.50 0.50 0.0 0 0 227.95 265.45
  L 228.18 265.26
  A 0.31 0.30 -40.4 0 0 228.22 264.83
  L 225.71 261.73
  A 0.55 0.55 0.0 0 1 225.93 260.87
  Q 228.89 259.69 228.07 256.70
  A 2.96 2.96 0.0 0 0 225.21 254.51
  L 223.09 254.51
  A 1.65 1.64 -90.0 0 0 221.45 256.16
  L 221.45 264.82
  A 0.54 0.53 90.0 0 0 221.98 265.36
  L 222.29 265.36
  A 0.42 0.42 0.0 0 0 222.71 264.94
  L 222.71 261.69
  Z
  M 231.16 259.94
  Q 231.16 263.96 231.17 264.57
  A 0.78 0.78 0.0 0 0 231.94 265.35
  L 237.03 265.38
  A 0.40 0.40 0.0 0 0 237.43 264.98
  L 237.43 264.69
  A 0.58 0.58 0.0 0 0 236.85 264.10
  L 233.00 264.08
  A 0.77 0.76 -89.7 0 1 232.24 263.30
  L 232.25 261.37
  A 0.80 0.79 -87.8 0 1 233.10 260.58
  Q 237.42 260.87 237.28 259.97
  Q 237.43 259.01 233.10 259.30
  A 0.80 0.79 87.9 0 1 232.25 258.50
  L 232.24 256.57
  A 0.77 0.76 89.7 0 1 233.00 255.80
  L 236.85 255.78
  A 0.58 0.58 0.0 0 0 237.43 255.19
  L 237.43 254.89
  A 0.40 0.40 0.0 0 0 237.03 254.50
  L 231.95 254.52
  A 0.78 0.78 0.0 0 0 231.17 255.30
  Q 231.17 255.91 231.16 259.94
  Z
  M 252.13 259.96
  Q 252.15 261.98 252.14 264.90
  A 0.40 0.40 0.0 0 0 252.94 264.98
  Q 253.19 263.76 252.87 261.66
  A 0.40 0.40 0.0 0 1 253.58 261.35
  L 256.85 265.37
  A 0.32 0.32 0.0 0 0 257.30 265.42
  L 257.52 265.24
  A 0.41 0.41 0.0 0 0 257.59 264.67
  Q 255.95 262.49 254.26 260.24
  Q 254.21 260.17 254.20 259.95
  Q 254.20 259.74 254.26 259.66
  Q 255.92 257.40 257.54 255.20
  A 0.41 0.41 0.0 0 0 257.46 254.63
  L 257.24 254.46
  A 0.32 0.32 0.0 0 0 256.79 254.51
  L 253.57 258.56
  A 0.40 0.40 0.0 0 1 252.85 258.26
  Q 253.15 256.16 252.89 254.94
  A 0.40 0.40 0.0 0 0 252.09 255.03
  Q 252.12 257.95 252.13 259.96
  Z
  M 139.97 259.88
  A 1.74 1.74 0.0 0 0 138.23 258.14
  A 1.74 1.74 0.0 0 0 136.49 259.88
  A 1.74 1.74 0.0 0 0 138.23 261.62
  A 1.74 1.74 0.0 0 0 139.97 259.88
  Z
  M 263.25 259.83
  A 1.66 1.66 0.0 0 0 261.59 258.17
  A 1.66 1.66 0.0 0 0 259.93 259.83
  A 1.66 1.66 0.0 0 0 261.59 261.49
  A 1.66 1.66 0.0 0 0 263.25 259.83
  Z
  M 185.83 275.78
  C 183.11 273.87 180.19 277.66 181.68 280.03
  C 182.97 282.10 184.49 281.67 186.95 281.16
  A 0.56 0.56 0.0 0 0 187.40 280.61
  L 187.40 271.72
  A 0.44 0.44 0.0 0 0 186.53 271.60
  Q 186.10 273.10 186.46 275.39
  A 0.40 0.40 0.0 0 1 185.83 275.78
  Z
  M 170.84 280.18
  L 170.74 276.64
  A 1.28 1.28 0.0 0 0 169.43 275.39
  L 167.60 275.44
  A 3.13 3.05 -1.5 0 0 164.55 278.57
  A 3.13 3.05 -1.5 0 0 167.76 281.54
  L 169.59 281.49
  A 1.28 1.28 0.0 0 0 170.84 280.18
  Z
  M 175.10 280.72
  L 175.10 277.75
  A 1.21 1.21 0.0 0 1 176.31 276.54
  L 176.93 276.54
  A 0.98 0.98 0.0 0 1 177.91 277.52
  L 177.91 280.85
  A 0.51 0.51 0.0 0 0 178.42 281.36
  L 178.84 281.36
  A 0.38 0.38 0.0 0 0 179.22 280.98
  L 179.22 277.68
  A 2.16 2.15 -0.0 0 0 177.06 275.53
  L 174.46 275.53
  A 0.62 0.62 0.0 0 0 173.84 276.16
  L 173.91 280.73
  A 0.60 0.59 -45.4 0 0 175.10 280.72
  Z
  M 196.59 280.83
  L 196.59 277.44
  A 1.01 1.00 82.5 0 1 197.33 276.47
  Q 199.87 275.75 199.13 280.60
  A 0.55 0.53 -76.8 0 0 199.49 281.20
  L 199.70 281.25
  A 0.59 0.58 8.1 0 0 200.44 280.70
  L 200.47 277.88
  A 1.42 1.40 -9.0 0 1 201.44 276.56
  L 201.48 276.55
  A 0.93 0.93 0.0 0 1 202.72 277.38
  L 202.90 280.90
  A 0.51 0.51 0.0 0 0 203.90 281.00
  C 204.38 279.16 204.53 273.79 200.80 275.69
  A 1.20 1.19 45.3 0 1 199.70 275.68
  Q 198.50 275.05 195.88 275.61
  A 0.66 0.66 0.0 0 0 195.36 276.23
  Q 195.18 280.00 195.48 280.99
  A 0.57 0.57 0.0 0 0 196.59 280.83
  Z
  M 212.92 278.45
  A 3.22 3.22 0.0 0 0 209.70 275.23
  A 3.22 3.22 0.0 0 0 206.48 278.45
  A 3.22 3.22 0.0 0 0 209.70 281.67
  A 3.22 3.22 0.0 0 0 212.92 278.45
  Z
  M 216.24 281.24
  A 0.39 0.38 -5.0 0 0 216.62 280.79
  Q 215.87 276.76 218.26 276.65
  A 0.50 0.50 0.0 0 0 218.74 276.15
  L 218.74 275.87
  A 0.40 0.40 0.0 0 0 218.34 275.47
  L 216.02 275.47
  A 0.73 0.73 0.0 0 0 215.29 276.20
  L 215.29 280.72
  A 0.52 0.52 0.0 0 0 215.81 281.24
  L 216.24 281.24
  Z
  M 225.53 279.47
  Q 223.77 280.83 221.95 280.04
  A 0.57 0.57 0.0 0 1 222.18 278.94
  L 225.37 278.94
  A 1.11 1.11 0.0 0 0 226.29 277.21
  C 222.62 271.81 217.13 278.91 222.11 281.39
  Q 223.61 282.14 225.75 280.82
  A 0.17 0.16 80.1 0 0 225.84 280.69
  L 225.99 279.74
  A 0.29 0.29 0.0 0 0 225.53 279.47
  Z"
/>
<path fill="#e49fa1" d="
  M 211.04 115.53
  Q 211.33 115.68 211.38 115.83
  C 213.76 123.19 212.54 131.24 206.14 136.13
  Q 203.21 138.36 200.56 139.71
  A 0.44 0.44 0.0 0 1 199.98 139.10
  Q 203.60 132.77 206.68 124.81
  Q 206.75 124.62 206.58 124.54
  Q 206.40 124.45 206.30 124.62
  Q 201.84 131.90 199.00 138.61
  A 0.44 0.44 0.0 0 1 198.16 138.52
  Q 197.63 135.60 197.63 131.91
  C 197.63 123.86 203.30 118.01 210.59 115.44
  Q 210.74 115.38 211.04 115.53
  Z"
/>
<path fill="#e49fa1" d="
  M 187.75 130.79
  Q 187.21 131.23 194.98 140.43
  A 0.32 0.32 0.0 0 1 194.67 140.95
  Q 181.61 138.10 182.40 124.52
  Q 182.41 124.49 182.47 124.42
  Q 182.51 124.38 182.55 124.34
  Q 182.60 124.30 182.65 124.27
  Q 182.73 124.23 182.76 124.23
  Q 196.20 126.35 196.20 139.71
  A 0.32 0.32 0.0 0 1 195.63 139.91
  Q 188.29 130.36 187.75 130.79
  Z"
/>
<path fill="#e49fa1" d="
  M 126.34 175.84
  L 109.88 175.84
  A 0.53 0.53 0.0 0 0 109.35 176.37
  L 109.35 192.76
  A 0.53 0.53 0.0 0 1 108.82 193.29
  L 99.89 193.29
  A 0.53 0.53 0.0 0 1 99.36 192.76
  L 99.36 146.65
  A 0.53 0.53 0.0 0 1 99.89 146.12
  L 129.02 146.12
  A 0.53 0.53 0.0 0 1 129.55 146.65
  L 129.55 154.68
  A 0.53 0.53 0.0 0 1 129.02 155.21
  L 109.88 155.21
  A 0.53 0.53 0.0 0 0 109.35 155.74
  L 109.35 166.31
  A 0.53 0.53 0.0 0 0 109.88 166.84
  L 126.34 166.84
  A 0.53 0.53 0.0 0 1 126.87 167.37
  L 126.87 175.31
  A 0.53 0.53 0.0 0 1 126.34 175.84
  Z"
/>
<rect fill="#e49fa1" x="-5.00" y="-23.56" transform="translate(197.73,169.65) rotate(0.1)" width="10.00" height="47.12" rx="0.40"/>
<path fill="#e49fa1" d="
  M 283.05 146.17
  Q 291.71 146.23 299.85 146.11
  A 0.81 0.80 89.6 0 1 300.67 146.92
  L 300.67 154.41
  A 0.81 0.81 0.0 0 1 299.86 155.22
  L 288.60 155.22
  A 0.60 0.60 0.0 0 0 288.00 155.82
  L 287.98 192.60
  A 0.71 0.70 81.8 0 1 287.48 193.28
  Q 287.45 193.29 283.00 193.28
  Q 278.54 193.28 278.52 193.27
  A 0.71 0.70 -81.7 0 1 278.01 192.59
  L 278.07 155.81
  A 0.60 0.60 0.0 0 0 277.47 155.21
  L 266.21 155.18
  A 0.81 0.81 0.0 0 1 265.40 154.37
  L 265.42 146.88
  A 0.81 0.80 -89.5 0 1 266.24 146.08
  Q 274.38 146.21 283.05 146.17
  Z"
/>
<rect fill="#b68485" x="97.13" y="207.06" width="205.64" height="1.82" rx="0.89"/>
<path fill="#e49fa1" d="
  M 124.78 218.40
  Q 124.93 218.40 124.97 218.47
  Q 128.17 226.21 131.26 233.87
  A 0.57 0.57 0.0 0 1 130.73 234.65
  L 130.44 234.65
  A 0.43 0.42 -14.3 0 1 130.07 234.44
  L 127.99 230.83
  A 0.74 0.73 -14.5 0 0 127.35 230.46
  Q 126.85 230.45 124.76 230.45
  Q 122.67 230.44 122.17 230.45
  A 0.74 0.73 14.7 0 0 121.53 230.82
  L 119.44 234.42
  A 0.43 0.42 14.5 0 1 119.07 234.63
  L 118.78 234.63
  A 0.57 0.57 0.0 0 1 118.25 233.85
  Q 121.37 226.20 124.60 218.47
  Q 124.63 218.40 124.78 218.40
  Z
  M 122.27 228.29
  A 0.33 0.33 0.0 0 0 122.58 228.73
  L 126.97 228.73
  A 0.33 0.33 0.0 0 0 127.27 228.28
  L 125.07 222.62
  A 0.33 0.33 0.0 0 0 124.46 222.62
  L 122.27 228.29
  Z"
/>
<path fill="#e49fa1" d="
  M 150.79 222.36
  Q 150.43 222.22 149.76 221.52
  C 148.23 219.90 143.79 219.64 143.19 222.42
  C 142.11 227.46 155.20 224.42 152.29 232.05
  C 150.84 235.84 142.16 235.86 141.29 231.66
  A 0.74 0.74 0.0 0 1 142.62 231.08
  Q 145.16 234.62 149.64 232.79
  A 1.62 1.61 2.0 0 0 150.47 232.02
  C 153.31 226.30 141.29 228.86 141.37 222.99
  Q 141.40 220.54 143.97 219.45
  Q 148.36 217.59 151.59 221.17
  A 0.74 0.74 0.0 0 1 150.79 222.36
  Z"
/>
<path fill="#e49fa1" d="
  M 249.20 226.82
  A 7.92 7.92 0.0 0 1 241.28 234.74
  A 7.92 7.92 0.0 0 1 233.36 226.82
  A 7.92 7.92 0.0 0 1 241.28 218.90
  A 7.92 7.92 0.0 0 1 249.20 226.82
  Z
  M 247.59 226.81
  A 6.30 6.30 0.0 0 0 241.29 220.51
  A 6.30 6.30 0.0 0 0 234.99 226.81
  A 6.30 6.30 0.0 0 0 241.29 233.11
  A 6.30 6.30 0.0 0 0 247.59 226.81
  Z"
/>
<path fill="#e49fa1" d="
  M 276.22 226.82
  A 7.94 7.94 0.0 0 1 268.28 234.76
  A 7.94 7.94 0.0 0 1 260.34 226.82
  A 7.94 7.94 0.0 0 1 268.28 218.88
  A 7.94 7.94 0.0 0 1 276.22 226.82
  Z
  M 274.58 226.79
  A 6.29 6.29 0.0 0 0 268.29 220.50
  A 6.29 6.29 0.0 0 0 262.00 226.79
  A 6.29 6.29 0.0 0 0 268.29 233.08
  A 6.29 6.29 0.0 0 0 274.58 226.79
  Z"
/>
<path fill="#e49fa1" d="
  M 167.27 218.99
  Q 169.34 219.01 171.22 219.02
  A 0.80 0.80 0.0 0 1 172.01 219.83
  L 172.00 219.92
  A 0.80 0.79 1.4 0 1 171.18 220.69
  L 168.66 220.64
  A 0.63 0.63 0.0 0 0 168.01 221.28
  Q 168.08 231.78 167.91 233.94
  Q 167.86 234.65 167.20 234.65
  Q 166.54 234.65 166.50 233.94
  Q 166.35 231.77 166.51 221.27
  A 0.63 0.63 0.0 0 0 165.87 220.63
  L 163.35 220.66
  A 0.80 0.79 -0.9 0 1 162.53 219.88
  L 162.52 219.79
  A 0.80 0.80 0.0 0 1 163.32 218.99
  Q 165.20 218.99 167.27 218.99
  Z"
/>
<path fill="#e49fa1" d="
  M 102.29 221.09
  L 102.34 225.78
  A 0.40 0.40 0.0 0 0 102.74 226.18
  L 108.97 226.11
  A 0.68 0.67 -0.0 0 1 109.66 226.78
  L 109.66 227.05
  A 0.74 0.74 0.0 0 1 108.91 227.76
  L 102.90 227.66
  A 0.57 0.56 0.4 0 0 102.33 228.22
  L 102.30 233.91
  A 0.79 0.79 0.0 0 1 101.49 234.70
  L 101.24 234.69
  A 0.71 0.71 0.0 0 1 100.57 233.98
  L 100.61 219.89
  A 0.68 0.68 0.0 0 1 101.29 219.21
  L 109.17 219.18
  A 0.75 0.74 89.2 0 1 109.91 219.92
  L 109.92 220.16
  A 0.47 0.47 0.0 0 1 109.46 220.62
  L 102.73 220.64
  A 0.44 0.44 0.0 0 0 102.29 221.09
  Z"
/>
<path fill="#e49fa1" d="
  M 222.54 226.44
  L 222.54 227.41
  A 0.30 0.30 0.0 0 1 222.24 227.71
  L 215.63 227.71
  A 0.30 0.30 0.0 0 0 215.33 228.01
  L 215.33 234.31
  A 0.30 0.30 0.0 0 1 215.03 234.61
  L 213.89 234.61
  A 0.30 0.30 0.0 0 1 213.59 234.31
  L 213.59 219.53
  A 0.30 0.30 0.0 0 1 213.89 219.23
  L 222.49 219.23
  A 0.30 0.30 0.0 0 1 222.79 219.53
  L 222.79 220.34
  A 0.30 0.30 0.0 0 1 222.49 220.64
  L 215.58 220.64
  A 0.30 0.30 0.0 0 0 215.28 220.94
  L 215.28 225.84
  A 0.30 0.30 0.0 0 0 215.58 226.14
  L 222.24 226.14
  A 0.30 0.30 0.0 0 1 222.54 226.44
  Z"
/>
<path fill="#e49fa1" d="
  M 287.95 219.77
  A 0.58 0.58 0.0 0 1 288.53 219.19
  L 292.37 219.21
  A 7.64 7.34 0.3 0 1 299.97 226.59
  L 299.97 227.29
  A 7.64 7.34 0.3 0 1 292.29 234.59
  L 288.45 234.57
  A 0.58 0.58 0.0 0 1 287.87 233.99
  L 287.95 219.77
  Z
  M 289.57 221.43
  L 289.61 232.31
  A 0.58 0.58 0.0 0 0 290.19 232.88
  L 292.25 232.88
  A 6.16 5.87 -0.2 0 0 298.39 226.98
  L 298.39 226.68
  A 6.16 5.87 -0.2 0 0 292.21 220.84
  L 290.15 220.84
  A 0.58 0.58 0.0 0 0 289.57 221.43
  Z"
/>
<circle fill="#262626" cx="241.29" cy="226.81" r="6.30"/>
<circle fill="#262626" cx="268.29" cy="226.79" r="6.29"/>
<path fill="#262626" d="
  M 289.57 221.43
  A 0.58 0.58 0.0 0 1 290.15 220.84
  L 292.21 220.84
  A 6.16 5.87 -0.2 0 1 298.39 226.68
  L 298.39 226.98
  A 6.16 5.87 -0.2 0 1 292.25 232.88
  L 290.19 232.88
  A 0.58 0.58 0.0 0 1 289.61 232.31
  L 289.57 221.43
  Z"
/>
<path fill="#262626" d="
  M 122.27 228.29
  L 124.46 222.62
  A 0.33 0.33 0.0 0 1 125.07 222.62
  L 127.27 228.28
  A 0.33 0.33 0.0 0 1 126.97 228.73
  L 122.58 228.73
  A 0.33 0.33 0.0 0 1 122.27 228.29
  Z"
/>
<rect fill="#b68485" x="97.35" y="244.34" width="205.52" height="1.50" rx="0.74"/>
<path fill="#e49fa1" d="
  M 244.80 254.39
  Q 245.07 254.39 245.15 254.59
  Q 247.21 259.74 249.30 264.91
  A 0.38 0.38 0.0 0 1 248.95 265.43
  L 248.58 265.43
  A 0.15 0.13 75.1 0 1 248.46 265.35
  L 247.04 262.60
  A 0.65 0.64 -20.1 0 0 246.30 262.26
  Q 245.99 262.34 244.78 262.34
  Q 243.56 262.34 243.25 262.25
  A 0.65 0.64 20.4 0 0 242.51 262.59
  L 241.07 265.33
  A 0.15 0.13 -74.8 0 1 240.95 265.41
  L 240.58 265.41
  A 0.38 0.38 0.0 0 1 240.24 264.88
  Q 242.36 259.73 244.45 254.59
  Q 244.53 254.39 244.80 254.39
  Z
  M 244.77 261.27
  Q 245.50 261.26 245.90 261.15
  A 0.53 0.52 -16.6 0 0 246.26 260.49
  Q 245.25 257.21 244.72 257.22
  Q 244.19 257.22 243.27 260.53
  A 0.53 0.52 15.2 0 0 243.65 261.18
  Q 244.05 261.28 244.77 261.27
  Z"
/>
<path fill="#e49fa1" d="
  M 143.69 259.91
  C 143.66 263.32 146.76 264.98 149.68 263.68
  C 150.63 263.26 151.03 262.18 152.01 262.03
  A 0.37 0.37 0.0 0 1 152.38 262.60
  Q 150.14 266.14 146.61 265.29
  A 4.04 3.77 -21.3 0 1 145.63 264.90
  Q 142.59 263.16 142.62 259.90
  Q 142.65 256.65 145.72 254.96
  A 4.04 3.77 22.3 0 1 146.70 254.59
  Q 150.25 253.80 152.43 257.38
  A 0.37 0.37 0.0 0 1 152.05 257.95
  C 151.07 257.78 150.69 256.69 149.75 256.25
  C 146.85 254.90 143.72 256.51 143.69 259.91
  Z"
/>
<path fill="#e49fa1" d="
  M 166.01 259.93
  A 5.43 5.43 0.0 0 1 160.58 265.36
  A 5.43 5.43 0.0 0 1 155.15 259.93
  A 5.43 5.43 0.0 0 1 160.58 254.50
  A 5.43 5.43 0.0 0 1 166.01 259.93
  Z
  M 164.77 259.90
  A 4.26 4.26 0.0 0 0 160.51 255.64
  A 4.26 4.26 0.0 0 0 156.25 259.90
  A 4.26 4.26 0.0 0 0 160.51 264.16
  A 4.26 4.26 0.0 0 0 164.77 259.90
  Z"
/>
<path fill="#e49fa1" d="
  M 175.02 259.87
  L 175.02 260.23
  A 0.35 0.34 -89.9 0 1 174.68 260.57
  L 170.54 260.57
  A 0.51 0.50 0.1 0 0 170.03 261.07
  L 170.03 264.88
  A 0.44 0.43 -89.9 0 1 169.60 265.31
  L 169.23 265.31
  A 0.46 0.46 0.0 0 1 168.77 264.85
  L 168.78 255.30
  A 0.80 0.80 0.0 0 1 169.58 254.50
  L 174.83 254.51
  A 0.48 0.48 0.0 0 1 175.31 254.99
  L 175.31 255.32
  A 0.41 0.40 0.1 0 1 174.90 255.72
  L 170.69 255.71
  A 0.65 0.65 0.0 0 0 170.04 256.36
  L 170.04 258.70
  A 0.64 0.63 -89.9 0 0 170.66 259.34
  L 174.49 259.35
  A 0.53 0.52 0.1 0 1 175.02 259.87
  Z"
/>
<path fill="#e49fa1" d="
  M 184.34 259.89
  L 184.34 260.25
  A 0.35 0.34 -90.0 0 1 184.00 260.60
  L 179.85 260.60
  A 0.51 0.50 -0.0 0 0 179.34 261.10
  L 179.34 264.92
  A 0.44 0.43 -90.0 0 1 178.91 265.36
  L 178.54 265.36
  A 0.46 0.46 0.0 0 1 178.08 264.90
  L 178.08 255.32
  A 0.80 0.80 0.0 0 1 178.88 254.52
  L 184.14 254.52
  A 0.48 0.48 0.0 0 1 184.62 255.00
  L 184.62 255.33
  A 0.41 0.40 -0.0 0 1 184.21 255.73
  L 179.99 255.73
  A 0.65 0.65 0.0 0 0 179.34 256.38
  L 179.34 258.73
  A 0.64 0.63 -90.0 0 0 179.97 259.37
  L 183.81 259.37
  A 0.53 0.52 0.0 0 1 184.34 259.89
  Z"
/>
<path fill="#e49fa1" d="
  M 193.17 259.97
  Q 193.32 260.87 188.95 260.60
  A 0.81 0.80 -88.2 0 0 188.10 261.41
  L 188.10 263.36
  A 0.78 0.77 -90.0 0 0 188.87 264.14
  L 192.76 264.14
  A 0.59 0.59 0.0 0 1 193.35 264.73
  L 193.35 265.03
  A 0.40 0.40 0.0 0 1 192.95 265.43
  L 187.81 265.43
  A 0.79 0.79 0.0 0 1 187.02 264.65
  Q 187.02 264.04 186.99 259.97
  Q 186.97 255.90 186.97 255.29
  A 0.79 0.79 0.0 0 1 187.75 254.50
  L 192.89 254.44
  A 0.40 0.40 0.0 0 1 193.30 254.84
  L 193.30 255.14
  A 0.59 0.59 0.0 0 1 192.72 255.74
  L 188.83 255.78
  A 0.78 0.77 89.4 0 0 188.06 256.57
  L 188.08 258.51
  A 0.81 0.80 87.6 0 0 188.94 259.31
  Q 193.31 259.00 193.17 259.97
  Z"
/>
<path fill="#e49fa1" d="
  M 196.70 259.86
  Q 196.72 255.85 196.72 255.24
  A 0.78 0.78 0.0 0 1 197.50 254.47
  L 202.58 254.47
  A 0.40 0.40 0.0 0 1 202.97 254.86
  L 202.97 255.16
  A 0.58 0.58 0.0 0 1 202.39 255.74
  L 198.55 255.74
  A 0.77 0.76 90.0 0 0 197.79 256.51
  L 197.79 258.44
  A 0.80 0.79 88.2 0 0 198.63 259.24
  Q 202.95 258.97 202.80 259.93
  Q 202.94 260.82 198.62 260.51
  A 0.80 0.79 -87.6 0 0 197.77 261.30
  L 197.75 263.23
  A 0.77 0.76 -89.4 0 0 198.51 264.00
  L 202.35 264.04
  A 0.58 0.58 0.0 0 1 202.93 264.63
  L 202.92 264.93
  A 0.40 0.40 0.0 0 1 202.52 265.32
  L 197.45 265.27
  A 0.78 0.78 0.0 0 1 196.68 264.49
  Q 196.68 263.88 196.70 259.86
  Z"
/>
<path fill="#e49fa1" d="
  M 212.71 254.65
  C 215.44 254.28 219.34 255.05 217.59 258.72
  A 1.01 1.01 0.0 0 0 217.61 259.63
  Q 217.71 259.82 218.05 260.12
  Q 218.33 260.38 218.46 260.70
  C 220.09 264.72 215.66 265.71 212.65 265.29
  A 0.76 0.75 -86.1 0 1 212.00 264.54
  L 212.00 255.47
  A 0.83 0.83 0.0 0 1 212.71 254.65
  Z
  M 213.04 256.38
  L 212.97 258.14
  A 0.67 0.67 0.0 0 0 213.61 258.83
  L 214.63 258.87
  A 2.11 1.39 2.2 0 0 216.79 257.56
  L 216.80 257.24
  A 2.11 1.39 2.2 0 0 214.75 255.77
  L 213.73 255.73
  A 0.67 0.67 0.0 0 0 213.04 256.38
  Z
  M 213.06 260.69
  L 213.08 263.51
  A 0.54 0.54 0.0 0 0 213.63 264.05
  L 215.33 264.03
  A 2.32 1.84 -0.5 0 0 217.63 262.17
  L 217.63 261.95
  A 2.32 1.84 -0.5 0 0 215.29 260.13
  L 213.59 260.15
  A 0.54 0.54 0.0 0 0 213.06 260.69
  Z"
/>
<path fill="#e49fa1" d="
  M 222.71 261.69
  L 222.71 264.94
  A 0.42 0.42 0.0 0 1 222.29 265.36
  L 221.98 265.36
  A 0.54 0.53 90.0 0 1 221.45 264.82
  L 221.45 256.16
  A 1.65 1.64 -90.0 0 1 223.09 254.51
  L 225.21 254.51
  A 2.96 2.96 0.0 0 1 228.07 256.70
  Q 228.89 259.69 225.93 260.87
  A 0.55 0.55 0.0 0 0 225.71 261.73
  L 228.22 264.83
  A 0.31 0.30 -40.4 0 1 228.18 265.26
  L 227.95 265.45
  A 0.50 0.50 0.0 0 1 227.25 265.37
  L 223.91 261.26
  A 0.68 0.67 -64.6 0 0 222.71 261.69
  Z
  M 222.65 256.20
  L 222.81 259.76
  A 0.33 0.33 0.0 0 0 223.15 260.07
  L 224.59 260.01
  A 2.67 1.96 -2.5 0 0 227.17 257.93
  L 227.16 257.63
  A 2.67 1.96 -2.5 0 0 224.41 255.79
  L 222.97 255.85
  A 0.33 0.33 0.0 0 0 222.65 256.20
  Z"
/>
<path fill="#e49fa1" d="
  M 231.16 259.94
  Q 231.17 255.91 231.17 255.30
  A 0.78 0.78 0.0 0 1 231.95 254.52
  L 237.03 254.50
  A 0.40 0.40 0.0 0 1 237.43 254.89
  L 237.43 255.19
  A 0.58 0.58 0.0 0 1 236.85 255.78
  L 233.00 255.80
  A 0.77 0.76 89.7 0 0 232.24 256.57
  L 232.25 258.50
  A 0.80 0.79 87.9 0 0 233.10 259.30
  Q 237.43 259.01 237.28 259.97
  Q 237.42 260.87 233.10 260.58
  A 0.80 0.79 -87.8 0 0 232.25 261.37
  L 232.24 263.30
  A 0.77 0.76 -89.7 0 0 233.00 264.08
  L 236.85 264.10
  A 0.58 0.58 0.0 0 1 237.43 264.69
  L 237.43 264.98
  A 0.40 0.40 0.0 0 1 237.03 265.38
  L 231.94 265.35
  A 0.78 0.78 0.0 0 1 231.17 264.57
  Q 231.16 263.96 231.16 259.94
  Z"
/>
<path fill="#e49fa1" d="
  M 254.20 259.95
  Q 254.21 260.17 254.26 260.24
  Q 255.95 262.49 257.59 264.67
  A 0.41 0.41 0.0 0 1 257.52 265.24
  L 257.30 265.42
  A 0.32 0.32 0.0 0 1 256.85 265.37
  L 253.58 261.35
  A 0.40 0.40 0.0 0 0 252.87 261.66
  Q 253.19 263.76 252.94 264.98
  A 0.40 0.40 0.0 0 1 252.14 264.90
  Q 252.15 261.98 252.13 259.96
  Q 252.12 257.95 252.09 255.03
  A 0.40 0.40 0.0 0 1 252.89 254.94
  Q 253.15 256.16 252.85 258.26
  A 0.40 0.40 0.0 0 0 253.57 258.56
  L 256.79 254.51
  A 0.32 0.32 0.0 0 1 257.24 254.46
  L 257.46 254.63
  A 0.41 0.41 0.0 0 1 257.54 255.20
  Q 255.92 257.40 254.26 259.66
  Q 254.20 259.74 254.20 259.95
  Z"
/>
<circle fill="#262626" cx="160.51" cy="259.90" r="4.26"/>
<path fill="#262626" d="
  M 213.04 256.38
  A 0.67 0.67 0.0 0 1 213.73 255.73
  L 214.75 255.77
  A 2.11 1.39 2.2 0 1 216.80 257.24
  L 216.79 257.56
  A 2.11 1.39 2.2 0 1 214.63 258.87
  L 213.61 258.83
  A 0.67 0.67 0.0 0 1 212.97 258.14
  L 213.04 256.38
  Z"
/>
<path fill="#262626" d="
  M 222.65 256.20
  A 0.33 0.33 0.0 0 1 222.97 255.85
  L 224.41 255.79
  A 2.67 1.96 -2.5 0 1 227.16 257.63
  L 227.17 257.93
  A 2.67 1.96 -2.5 0 1 224.59 260.01
  L 223.15 260.07
  A 0.33 0.33 0.0 0 1 222.81 259.76
  L 222.65 256.20
  Z"
/>
<path fill="#262626" d="
  M 244.72 257.22
  Q 245.25 257.21 246.26 260.49
  A 0.53 0.52 -16.6 0 1 245.90 261.15
  Q 245.50 261.26 244.77 261.27
  Q 244.05 261.28 243.65 261.18
  A 0.53 0.52 15.2 0 1 243.27 260.53
  Q 244.19 257.22 244.72 257.22
  Z"
/>
<circle fill="#e49fa1" cx="138.23" cy="259.88" r="1.74"/>
<circle fill="#e49fa1" cx="261.59" cy="259.83" r="1.66"/>
<path fill="#262626" d="
  M 213.06 260.69
  A 0.54 0.54 0.0 0 1 213.59 260.15
  L 215.29 260.13
  A 2.32 1.84 -0.5 0 1 217.63 261.95
  L 217.63 262.17
  A 2.32 1.84 -0.5 0 1 215.33 264.03
  L 213.63 264.05
  A 0.54 0.54 0.0 0 1 213.08 263.51
  L 213.06 260.69
  Z"
/>
<path fill="#e49fa1" d="
  M 185.83 275.78
  A 0.40 0.40 0.0 0 0 186.46 275.39
  Q 186.10 273.10 186.53 271.60
  A 0.44 0.44 0.0 0 1 187.40 271.72
  L 187.40 280.61
  A 0.56 0.56 0.0 0 1 186.95 281.16
  C 184.49 281.67 182.97 282.10 181.68 280.03
  C 180.19 277.66 183.11 273.87 185.83 275.78
  Z
  M 186.44 278.50
  A 2.01 2.01 0.0 0 0 184.43 276.49
  A 2.01 2.01 0.0 0 0 182.42 278.50
  A 2.01 2.01 0.0 0 0 184.43 280.51
  A 2.01 2.01 0.0 0 0 186.44 278.50
  Z"
/>
<path fill="#e49fa1" d="
  M 170.84 280.18
  A 1.28 1.28 0.0 0 1 169.59 281.49
  L 167.76 281.54
  A 3.13 3.05 -1.5 0 1 164.55 278.57
  A 3.13 3.05 -1.5 0 1 167.60 275.44
  L 169.43 275.39
  A 1.28 1.28 0.0 0 1 170.74 276.64
  L 170.84 280.18
  Z
  M 169.72 278.51
  A 2.00 2.00 0.0 0 0 167.72 276.51
  A 2.00 2.00 0.0 0 0 165.72 278.51
  A 2.00 2.00 0.0 0 0 167.72 280.51
  A 2.00 2.00 0.0 0 0 169.72 278.51
  Z"
/>
<path fill="#b68485" d="
  M 175.10 280.72
  A 0.60 0.59 -45.4 0 1 173.91 280.73
  L 173.84 276.16
  A 0.62 0.62 0.0 0 1 174.46 275.53
  L 177.06 275.53
  A 2.16 2.15 -0.0 0 1 179.22 277.68
  L 179.22 280.98
  A 0.38 0.38 0.0 0 1 178.84 281.36
  L 178.42 281.36
  A 0.51 0.51 0.0 0 1 177.91 280.85
  L 177.91 277.52
  A 0.98 0.98 0.0 0 0 176.93 276.54
  L 176.31 276.54
  A 1.21 1.21 0.0 0 0 175.10 277.75
  L 175.10 280.72
  Z"
/>
<path fill="#b68485" d="
  M 196.59 280.83
  A 0.57 0.57 0.0 0 1 195.48 280.99
  Q 195.18 280.00 195.36 276.23
  A 0.66 0.66 0.0 0 1 195.88 275.61
  Q 198.50 275.05 199.70 275.68
  A 1.20 1.19 45.3 0 0 200.80 275.69
  C 204.53 273.79 204.38 279.16 203.90 281.00
  A 0.51 0.51 0.0 0 1 202.90 280.90
  L 202.72 277.38
  A 0.93 0.93 0.0 0 0 201.48 276.55
  L 201.44 276.56
  A 1.42 1.40 -9.0 0 0 200.47 277.88
  L 200.44 280.70
  A 0.59 0.58 8.1 0 1 199.70 281.25
  L 199.49 281.20
  A 0.55 0.53 -76.8 0 1 199.13 280.60
  Q 199.87 275.75 197.33 276.47
  A 1.01 1.00 82.5 0 0 196.59 277.44
  L 196.59 280.83
  Z"
/>
<path fill="#b68485" d="
  M 212.92 278.45
  A 3.22 3.22 0.0 0 1 209.70 281.67
  A 3.22 3.22 0.0 0 1 206.48 278.45
  A 3.22 3.22 0.0 0 1 209.70 275.23
  A 3.22 3.22 0.0 0 1 212.92 278.45
  Z
  M 211.65 278.44
  A 1.97 1.97 0.0 0 0 209.68 276.47
  A 1.97 1.97 0.0 0 0 207.71 278.44
  A 1.97 1.97 0.0 0 0 209.68 280.41
  A 1.97 1.97 0.0 0 0 211.65 278.44
  Z"
/>
<path fill="#b68485" d="
  M 216.24 281.24
  L 215.81 281.24
  A 0.52 0.52 0.0 0 1 215.29 280.72
  L 215.29 276.20
  A 0.73 0.73 0.0 0 1 216.02 275.47
  L 218.34 275.47
  A 0.40 0.40 0.0 0 1 218.74 275.87
  L 218.74 276.15
  A 0.50 0.50 0.0 0 1 218.26 276.65
  Q 215.87 276.76 216.62 280.79
  A 0.39 0.38 -5.0 0 1 216.24 281.24
  Z"
/>
<path fill="#b68485" d="
  M 225.53 279.47
  A 0.29 0.29 0.0 0 1 225.99 279.74
  L 225.84 280.69
  A 0.17 0.16 80.1 0 1 225.75 280.82
  Q 223.61 282.14 222.11 281.39
  C 217.13 278.91 222.62 271.81 226.29 277.21
  A 1.11 1.11 0.0 0 1 225.37 278.94
  L 222.18 278.94
  A 0.57 0.57 0.0 0 0 221.95 280.04
  Q 223.77 280.83 225.53 279.47
  Z
  M 223.37 277.95
  Q 224.07 277.94 224.61 277.96
  A 0.39 0.39 0.0 0 0 224.94 277.33
  Q 224.21 276.33 223.35 276.34
  Q 222.49 276.36 221.78 277.38
  A 0.39 0.39 0.0 0 0 222.14 278.00
  Q 222.67 277.96 223.37 277.95
  Z"
/>
<path fill="#262626" d="
  M 223.35 276.34
  Q 224.21 276.33 224.94 277.33
  A 0.39 0.39 0.0 0 1 224.61 277.96
  Q 224.07 277.94 223.37 277.95
  Q 222.67 277.96 222.14 278.00
  A 0.39 0.39 0.0 0 1 221.78 277.38
  Q 222.49 276.36 223.35 276.34
  Z"
/>
<circle fill="#262626" cx="167.72" cy="278.51" r="2.00"/>
<circle fill="#262626" cx="184.43" cy="278.50" r="2.01"/>
<circle fill="#262626" cx="209.68" cy="278.44" r="1.97"/>
</svg>
