<?xml version="1.0" encoding="UTF-8" standalone="no"?>
<svg
   version="1.1"
   viewBox="0.00 0.00 400.00 400.00"
   id="svg30"
   sodipodi:docname="LOGO4.svg"
   inkscape:export-filename="LOGO6.png"
   inkscape:export-xdpi="96"
   inkscape:export-ydpi="96"
   inkscape:version="1.4.2 (f4327f4, 2025-05-13)"
   xmlns:inkscape="http://www.inkscape.org/namespaces/inkscape"
   xmlns:sodipodi="http://sodipodi.sourceforge.net/DTD/sodipodi-0.dtd"
   xmlns="http://www.w3.org/2000/svg"
   xmlns:svg="http://www.w3.org/2000/svg">
  <defs
     id="defs30" />
  <sodipodi:namedview
     id="namedview30"
     pagecolor="#ffffff"
     bordercolor="#000000"
     borderopacity="0.25"
     inkscape:showpageshadow="2"
     inkscape:pageopacity="0.0"
     inkscape:pagecheckerboard="0"
     inkscape:deskcolor="#d1d1d1"
     inkscape:zoom="1.4265879"
     inkscape:cx="165.78018"
     inkscape:cy="202.93176"
     inkscape:window-width="1920"
     inkscape:window-height="1009"
     inkscape:window-x="1912"
     inkscape:window-y="-8"
     inkscape:window-maximized="1"
     inkscape:current-layer="svg30" />
  <path
     fill="#e3a0a2"
     d="   M 200.71 137.47   L 206.84 124.36   A 0.14 0.13 25.6 0 0 206.77 124.18   L 206.77 124.17   A 0.15 0.14 25.6 0 0 206.58 124.23   L 199.93 136.80   L 199.13 138.66   A 0.47 0.47 0.0 0 1 198.24 138.57   Q 194.84 122.37 209.34 116.07   A 1.75 1.75 0.0 0 1 211.74 117.29   Q 215.23 132.99 200.34 139.64   A 0.42 0.41 2.9 0 1 199.81 139.06   L 200.71 137.47   Z"
     id="path1" />
  <path
     fill="#e3a0a2"
     d="   M 195.25 140.11   Q 194.73 140.52 194.36 140.63   Q 193.96 140.75 193.35 140.61   Q 183.45 138.20 182.35 127.52   Q 182.11 125.19 182.81 124.63   Q 183.51 124.06 185.73 124.80   Q 195.93 128.18 196.14 138.37   Q 196.15 138.99 195.95 139.36   Q 195.76 139.70 195.25 140.11   Z   M 188.3231 130.8959   A 0.35 0.35 0.0 0 0 187.8310 130.8433   L 187.8154 130.8559   A 0.35 0.35 0.0 0 0 187.7628 131.3480   L 194.4569 139.6441   A 0.35 0.35 0.0 0 0 194.9490 139.6967   L 194.9646 139.6841   A 0.35 0.35 0.0 0 0 195.0172 139.1920   L 188.3231 130.8959   Z"
     id="path2" />
  <path
     fill="#e3a0a2"
     d="   M 109.14 156.00   L 109.14 165.95   A 1.02 1.02 0.0 0 0 110.16 166.97   L 125.76 166.97   A 1.02 1.02 0.0 0 1 126.78 167.99   L 126.78 174.89   A 1.02 1.02 0.0 0 1 125.76 175.91   L 110.24 175.91   A 1.02 1.02 0.0 0 0 109.22 176.93   L 109.22 192.15   A 1.02 1.02 0.0 0 1 108.20 193.17   L 100.25 193.17   A 1.02 1.02 0.0 0 1 99.23 192.15   L 99.23 147.15   A 1.02 1.02 0.0 0 1 100.25 146.13   L 128.34 146.13   A 1.02 1.02 0.0 0 1 129.36 147.15   L 129.36 153.96   A 1.02 1.02 0.0 0 1 128.34 154.98   L 110.16 154.98   A 1.02 1.02 0.0 0 0 109.14 156.00   Z"
     id="path3" />
  <rect
     fill="#e3a0a2"
     x="192.84"
     y="146.12"
     width="9.98"
     height="47.06"
     rx="1.08"
     id="rect3" />
  <path
     fill="#e3a0a2"
     d="   M 283.05 146.17   Q 291.54 146.19 299.42 146.14   A 1.33 1.32 89.9 0 1 300.75 147.47   L 300.75 153.83   A 1.23 1.23 0.0 0 1 299.52 155.06   L 288.69 155.06   A 0.76 0.76 0.0 0 0 287.93 155.82   L 287.93 192.58   A 0.61 0.61 0.0 0 1 287.42 193.18   Q 286.71 193.30 282.96 193.30   Q 279.22 193.29 278.51 193.17   A 0.61 0.61 0.0 0 1 278.00 192.56   L 278.14 155.80   A 0.76 0.76 0.0 0 0 277.39 155.04   L 266.56 155.00   A 1.23 1.23 0.0 0 1 265.33 153.76   L 265.35 147.40   A 1.33 1.32 -89.7 0 1 266.69 146.08   Q 274.57 146.16 283.05 146.17   Z"
     id="path4" />
  <rect
     fill="#e3a0a2"
     x="97.37"
     y="207.09"
     width="205.20"
     height="1.88"
     rx="0.54"
     id="rect4" />
  <path
     fill="#e3a0a2"
     d="   M 127.56 230.71   L 121.67 230.71   A 0.33 0.33 0.0 0 0 121.37 230.91   L 119.86 234.58   A 0.33 0.33 0.0 0 1 119.56 234.78   L 118.16 234.78   A 0.33 0.33 0.0 0 1 117.86 234.32   L 124.43 218.39   A 0.33 0.33 0.0 0 1 125.04 218.39   L 131.12 233.43   A 0.33 0.33 0.0 0 1 131.12 233.67   L 130.68 234.74   A 0.33 0.33 0.0 0 1 130.09 234.78   L 127.85 230.88   A 0.33 0.33 0.0 0 0 127.56 230.71   Z   M 124.80 228.85   Q 125.97 228.83 126.72 228.61   A 0.50 0.50 0.0 0 0 127.04 227.94   Q 125.53 224.17 124.94 223.12   A 0.21 0.04 8.4 0 0 124.77 223.06   Q 124.74 223.06 124.69 223.06   Q 124.65 223.06 124.62 223.07   A 0.21 0.04 -10.4 0 0 124.45 223.13   Q 123.90 224.20 122.53 228.02   A 0.50 0.50 0.0 0 0 122.87 228.68   Q 123.62 228.88 124.80 228.85   Z"
     id="path5" />
  <path
     fill="#e3a0a2"
     d="   M 151.42 221.34   A 0.58 0.58 0.0 0 1 150.55 222.03   C 148.49 220.57 144.81 219.60 143.43 222.12   A 2.31 1.91 24.4 0 0 144.83 224.98   C 146.60 225.68 152.89 226.42 152.67 230.19   C 152.32 236.33 142.82 236.65 141.35 231.76   A 0.69 0.69 0.0 0 1 142.51 231.09   Q 145.59 234.39 149.39 232.61   A 2.25 2.24 -27.0 0 0 150.40 229.50   Q 149.95 228.69 148.72 228.27   C 146.07 227.37 140.29 226.33 141.33 222.30   C 142.42 218.13 149.84 217.35 151.42 221.34   Z"
     id="path6" />
  <path
     fill="#e3a0a2"
     d="   M 249.31 226.87   A 8.05 8.05 0.0 0 1 241.26 234.92   A 8.05 8.05 0.0 0 1 233.21 226.87   A 8.05 8.05 0.0 0 1 241.26 218.82   A 8.05 8.05 0.0 0 1 249.31 226.87   Z   M 247.41 226.86   A 6.16 6.16 0.0 0 0 241.25 220.70   A 6.16 6.16 0.0 0 0 235.09 226.86   A 6.16 6.16 0.0 0 0 241.25 233.02   A 6.16 6.16 0.0 0 0 247.41 226.86   Z"
     id="path7" />
  <path
     fill="#e3a0a2"
     d="   M 276.32 226.87   A 8.05 8.05 0.0 0 1 268.27 234.92   A 8.05 8.05 0.0 0 1 260.22 226.87   A 8.05 8.05 0.0 0 1 268.27 218.82   A 8.05 8.05 0.0 0 1 276.32 226.87   Z   M 274.44 226.86   A 6.18 6.18 0.0 0 0 268.26 220.68   A 6.18 6.18 0.0 0 0 262.08 226.86   A 6.18 6.18 0.0 0 0 268.26 233.04   A 6.18 6.18 0.0 0 0 274.44 226.86   Z"
     id="path8" />
  <path
     fill="#e3a0a2"
     d="   M 103.07 227.87   A 0.65 0.65 0.0 0 0 102.42 228.50   L 102.19 234.01   A 0.67 0.66 13.9 0 1 101.23 234.59   L 101.00 234.47   A 1.22 1.21 14.4 0 1 100.37 233.41   L 100.49 220.09   A 1.08 1.08 0.0 0 1 101.58 219.03   L 109.03 219.09   A 0.71 0.71 0.0 0 1 109.74 219.81   L 109.73 220.07   A 0.91 0.91 0.0 0 1 108.81 220.92   L 103.09 220.85   A 0.73 0.73 0.0 0 0 102.36 221.56   L 102.28 225.10   A 0.86 0.85 1.1 0 0 103.13 225.98   L 108.79 226.01   A 0.76 0.75 2.5 0 1 109.53 226.82   L 109.51 227.04   A 1.00 0.99 2.9 0 1 108.51 227.93   L 103.07 227.87   Z"
     id="path9" />
  <path
     fill="#e3a0a2"
     d="   M 162.91 220.45   L 162.91 219.39   A 0.41 0.41 0.0 0 1 163.32 218.98   L 171.43 218.98   A 0.41 0.41 0.0 0 1 171.84 219.39   L 171.84 220.44   A 0.41 0.41 0.0 0 1 171.43 220.85   L 168.50 220.85   A 0.41 0.41 0.0 0 0 168.09 221.26   L 168.09 234.30   A 0.41 0.41 0.0 0 1 167.52 234.68   L 166.48 234.25   A 0.41 0.41 0.0 0 1 166.23 233.87   L 166.23 221.27   A 0.41 0.41 0.0 0 0 165.82 220.86   L 163.32 220.86   A 0.41 0.41 0.0 0 1 162.91 220.45   Z"
     id="path10" />
  <path
     fill="#e3a0a2"
     d="   M 214.77 234.85   L 213.67 234.39   A 0.41 0.41 0.0 0 1 213.42 234.02   L 213.42 219.47   A 0.41 0.41 0.0 0 1 213.83 219.06   L 222.17 219.06   A 0.41 0.41 0.0 0 1 222.58 219.47   L 222.58 220.46   A 0.41 0.41 0.0 0 1 222.17 220.87   L 215.70 220.87   A 0.41 0.41 0.0 0 0 215.29 221.28   L 215.29 225.61   A 0.41 0.41 0.0 0 0 215.70 226.02   L 222.04 226.02   A 0.41 0.41 0.0 0 1 222.45 226.43   L 222.45 227.53   A 0.41 0.41 0.0 0 1 222.04 227.94   L 215.75 227.94   A 0.41 0.41 0.0 0 0 215.34 228.35   L 215.34 234.47   A 0.41 0.41 0.0 0 1 214.77 234.85   Z"
     id="path11" />
  <path
     fill="#e3a0a2"
     d="   M 287.82 220.32   A 1.30 1.30 0.0 0 1 289.11 219.02   L 291.70 219.01   A 8.35 7.74 -0.2 0 1 300.08 226.72   L 300.08 227.10   A 8.35 7.74 -0.2 0 1 291.76 234.87   L 289.17 234.88   A 1.30 1.30 0.0 0 1 287.86 233.58   L 287.82 220.32   Z   M 289.78 221.77   L 289.86 232.07   A 0.85 0.85 0.0 0 0 290.71 232.91   L 292.47 232.90   A 5.71 5.64 -0.4 0 0 298.14 227.22   L 298.14 226.50   A 5.71 5.64 -0.4 0 0 292.39 220.90   L 290.63 220.91   A 0.85 0.85 0.0 0 0 289.78 221.77   Z"
     id="path12" />
  <rect
     fill="#e3a0a2"
     x="97.41"
     y="244.34"
     width="205.22"
     height="1.62"
     rx="0.51"
     id="rect12" />
  <path
     fill="#e3a0a2"
     d="   M 144.02 260.07   C 144.12 263.24 146.57 264.77 149.44 263.64   C 150.09 263.39 150.76 262.64 151.47 262.06   A 0.55 0.55 0.0 0 1 152.32 262.73   C 149.90 267.69 142.76 265.67 142.58 260.12   C 142.40 254.56 149.39 252.09 152.13 256.88   A 0.55 0.55 0.0 0 1 151.33 257.60   C 150.58 257.07 149.86 256.36 149.20 256.15   C 146.26 255.21 143.92 256.90 144.02 260.07   Z"
     id="path13" />
  <path
     fill="#e3a0a2"
     d="   M 166.08 259.86   A 5.56 5.56 0.0 0 1 160.52 265.42   A 5.56 5.56 0.0 0 1 154.96 259.86   A 5.56 5.56 0.0 0 1 160.52 254.30   A 5.56 5.56 0.0 0 1 166.08 259.86   Z   M 164.70 259.92   A 4.13 4.13 0.0 0 0 160.57 255.79   A 4.13 4.13 0.0 0 0 156.44 259.92   A 4.13 4.13 0.0 0 0 160.57 264.05   A 4.13 4.13 0.0 0 0 164.70 259.92   Z"
     id="path14" />
  <path
     fill="#e3a0a2"
     d="   M 183.66 254.40   A 0.70 0.70 0.0 0 1 184.36 255.10   L 184.36 255.40   A 0.45 0.45 0.0 0 1 183.92 255.85   L 180.51 255.87   A 1.20 1.20 0.0 0 0 179.32 257.07   L 179.32 258.11   A 1.22 1.22 0.0 0 0 180.84 259.28   Q 182.18 258.94 183.40 259.19   A 0.77 0.77 0.0 0 1 183.48 260.68   Q 182.31 261.06 180.48 260.59   A 0.88 0.88 0.0 0 0 179.39 261.45   L 179.40 264.81   A 0.43 0.42 89.7 0 1 178.99 265.23   L 178.51 265.24   A 0.48 0.48 0.0 0 1 178.03 264.76   L 177.99 255.49   A 1.08 1.07 -0.3 0 1 179.06 254.42   L 183.66 254.40   Z"
     id="path15" />
  <path
     fill="#e3a0a2"
     d="   M 174.39 254.47   A 0.69 0.69 0.0 0 1 175.08 255.16   L 175.08 255.46   A 0.44 0.44 0.0 0 1 174.64 255.90   L 171.29 255.90   A 1.18 1.18 0.0 0 0 170.11 257.08   L 170.11 258.10   A 1.20 1.20 0.0 0 0 171.60 259.26   Q 172.92 258.93 174.12 259.18   A 0.76 0.76 0.0 0 1 174.19 260.65   Q 173.04 261.02 171.24 260.55   A 0.87 0.86 -82.8 0 0 170.16 261.39   L 170.16 264.69   A 0.42 0.41 -90.0 0 1 169.75 265.11   L 169.28 265.11   A 0.47 0.47 0.0 0 1 168.81 264.64   L 168.81 255.52   A 1.06 1.05 0.0 0 1 169.87 254.47   L 174.39 254.47   Z"
     id="path16" />
  <path
     fill="#e3a0a2"
     d="   M 192.97 259.92   Q 193.22 261.15 189.56 260.74   A 1.34 1.34 0.0 0 0 188.08 262.07   L 188.08 262.64   A 1.36 1.35 90.0 0 0 189.43 264.00   L 192.54 264.00   A 0.55 0.55 0.0 0 1 193.09 264.55   L 193.09 264.85   A 0.47 0.46 90.0 0 1 192.63 265.32   L 188.17 265.32   A 1.20 1.20 0.0 0 1 186.97 264.14   Q 186.96 263.54 186.94 259.96   Q 186.92 256.39 186.92 255.78   A 1.20 1.20 0.0 0 1 188.10 254.59   L 192.56 254.53   A 0.47 0.46 89.3 0 1 193.03 255.00   L 193.03 255.30   A 0.55 0.55 0.0 0 1 192.49 255.85   L 189.38 255.89   A 1.36 1.35 89.3 0 0 188.05 257.27   L 188.05 257.84   A 1.34 1.34 0.0 0 0 189.55 259.15   Q 193.20 258.69 192.97 259.92   Z"
     id="path17" />
  <path
     fill="#e3a0a2"
     d="   M 196.74 259.92   Q 196.75 256.38 196.76 255.78   A 1.19 1.19 0.0 0 1 197.94 254.61   L 202.35 254.59   A 0.47 0.46 89.7 0 1 202.81 255.05   L 202.81 255.35   A 0.54 0.54 0.0 0 1 202.27 255.89   L 199.19 255.91   A 1.35 1.34 89.7 0 0 197.86 257.26   L 197.86 257.83   A 1.33 1.32 -3.4 0 0 199.34 259.13   Q 202.96 258.71 202.72 259.92   Q 202.95 261.15 199.34 260.71   A 1.33 1.32 3.6 0 0 197.86 262.02   L 197.85 262.58   A 1.35 1.34 -89.6 0 0 199.18 263.94   L 202.26 263.96   A 0.54 0.54 0.0 0 1 202.80 264.51   L 202.80 264.81   A 0.47 0.46 -89.6 0 1 202.34 265.27   L 197.92 265.24   A 1.19 1.19 0.0 0 1 196.75 264.06   Q 196.74 263.46 196.74 259.92   Z"
     id="path18" />
  <path
     fill="#e3a0a2"
     d="   M 231.01 259.91   Q 231.04 256.35 231.05 255.75   A 1.20 1.19 -89.2 0 1 232.25 254.58   L 236.69 254.59   A 0.47 0.46 -89.9 0 1 237.15 255.06   L 237.15 255.36   A 0.55 0.55 0.0 0 1 236.60 255.90   L 233.50 255.90   A 1.35 1.34 -89.9 0 0 232.15 257.25   L 232.15 257.82   A 1.33 1.33 0.0 0 0 233.63 259.14   Q 237.27 258.74 237.02 259.96   Q 237.25 261.19 233.61 260.73   A 1.33 1.33 0.0 0 0 232.12 262.03   L 232.11 262.60   A 1.35 1.34 -89.2 0 0 233.43 263.97   L 236.53 264.02   A 0.55 0.55 0.0 0 1 237.07 264.57   L 237.06 264.87   A 0.47 0.46 -89.2 0 1 236.60 265.33   L 232.16 265.27   A 1.20 1.19 -89.8 0 1 230.98 264.08   Q 230.98 263.47 231.01 259.91   Z"
     id="path21" />
  <path
     fill="#e3a0a2"
     d="   M 254.59 259.97   Q 254.59 260.54 254.74 260.72   Q 255.82 262.01 257.40 264.29   A 0.54 0.54 0.0 0 1 256.64 265.04   Q 255.45 264.19 254.05 262.01   A 0.51 0.50 -61.6 0 0 253.12 262.29   L 253.12 264.54   A 0.51 0.51 0.0 0 1 252.21 264.86   Q 251.90 264.49 251.94 263.77   Q 252.05 261.86 252.03 259.99   Q 252.01 258.13 251.87 256.21   Q 251.81 255.50 252.12 255.12   A 0.51 0.51 0.0 0 1 253.03 255.42   L 253.08 257.67   A 0.51 0.50 60.5 0 0 254.01 257.94   Q 255.37 255.73 256.54 254.86   A 0.54 0.54 0.0 0 1 257.32 255.59   Q 255.78 257.90 254.73 259.21   Q 254.58 259.39 254.59 259.97   Z"
     id="path23" />
  <circle
     fill="#e3a0a2"
     cx="138.22"
     cy="259.88"
     r="1.81"
     id="circle23" />
  <circle
     fill="#e3a0a2"
     cx="261.52"
     cy="259.82"
     r="1.67"
     id="circle24" />
  <path
     fill="#e3a0a2"
     d="   M 186.23 274.96   L 186.23 272.37   A 0.54 0.53 -90.0 0 1 186.76 271.83   L 187.09 271.83   A 0.31 0.31 0.0 0 1 187.40 272.14   L 187.40 280.11   A 0.88 0.87 75.3 0 1 186.96 280.87   C 184.13 282.50 179.55 280.85 181.45 277.28   Q 182.95 274.49 185.59 275.42   A 0.49 0.48 -80.6 0 0 186.23 274.96   Z   M 186.25 278.48   A 1.80 1.80 0.0 0 0 184.45 276.68   A 1.80 1.80 0.0 0 0 182.65 278.48   A 1.80 1.80 0.0 0 0 184.45 280.28   A 1.80 1.80 0.0 0 0 186.25 278.48   Z"
     id="path24" />
  <path
     fill="#e3a0a2"
     d="   M 171.0681 279.2197   A 2.32 2.32 0.0 0 1 168.7120 281.5030   L 167.0122 281.4763   A 2.32 2.32 0.0 0 1 164.7289 279.1201   L 164.7519 277.6603   A 2.32 2.32 0.0 0 1 167.1080 275.3770   L 168.8078 275.4037   A 2.32 2.32 0.0 0 1 171.0911 277.7599   L 171.0681 279.2197   Z   M 169.57 278.48   A 1.83 1.83 0.0 0 0 167.74 276.65   A 1.83 1.83 0.0 0 0 165.91 278.48   A 1.83 1.83 0.0 0 0 167.74 280.31   A 1.83 1.83 0.0 0 0 169.57 278.48   Z"
     id="path26" />
  <path
     fill="#e3a0a2"
     d="   M 174.79 280.89   L 174.50 280.89   A 0.58 0.57 90.0 0 1 173.93 280.31   L 173.93 276.68   A 0.79 0.79 0.0 0 1 174.39 275.96   Q 177.54 274.56 178.89 276.44   A 1.26 1.25 -63.2 0 1 179.13 277.18   L 179.13 280.70   A 0.40 0.40 0.0 0 1 178.73 281.10   L 178.42 281.10   A 0.55 0.55 0.0 0 1 177.87 280.55   L 177.87 277.70   A 1.07 1.07 0.0 0 0 176.77 276.63   Q 174.72 276.67 175.10 280.55   A 0.31 0.31 0.0 0 1 174.79 280.89   Z"
     id="path27" />
  <path
     fill="#e3a0a2"
     d="   M 196.29 280.83   A 0.44 0.43 48.3 0 1 195.49 280.78   Q 194.68 278.54 195.53 276.27   A 1.10 1.09 -85.8 0 1 196.30 275.60   Q 198.22 275.15 199.74 275.69   A 1.18 1.16 42.0 0 0 200.60 275.65   Q 202.88 274.64 203.86 276.35   A 1.73 1.72 30.2 0 1 204.09 277.21   L 204.09 280.68   A 0.50 0.50 0.0 0 1 203.10 280.74   L 202.69 277.55   A 1.09 1.08 86.4 0 0 201.62 276.60   L 201.28 276.60   A 0.72 0.72 0.0 0 0 200.56 277.32   L 200.56 280.55   A 0.47 0.47 0.0 0 1 200.09 281.02   L 199.72 281.02   A 0.65 0.65 0.0 0 1 199.07 280.37   L 199.07 277.41   A 0.82 0.82 0.0 0 0 198.26 276.59   L 197.98 276.59   A 1.00 1.00 0.0 0 0 196.96 277.54   Q 196.84 279.70 196.29 280.83   Z"
     id="path28" />
  <path
     fill="#e3a0a2"
     d="   M 212.9920 278.1605   A 3.29 3.14 -4.0 0 1 209.9290 281.5224   A 3.29 3.14 -4.0 0 1 206.4280 278.6195   A 3.29 3.14 -4.0 0 1 209.4910 275.2576   A 3.29 3.14 -4.0 0 1 212.9920 278.1605   Z   M 211.44 278.45   A 1.80 1.80 0.0 0 0 209.64 276.65   A 1.80 1.80 0.0 0 0 207.84 278.45   A 1.80 1.80 0.0 0 0 209.64 280.25   A 1.80 1.80 0.0 0 0 211.44 278.45   Z"
     id="path29" />
  <text
     xml:space="preserve"
     style="font-size:14.0568px;text-align:start;writing-mode:lr-tb;direction:ltr;text-anchor:start;fill:#e3a0a2;stroke-width:1.17139;fill-opacity:1"
     x="246.06801"
     y="258.43393"
     id="text30"
     transform="scale(0.97422028,1.0264619)"><tspan
       sodipodi:role="line"
       id="tspan30"
       x="246.06801"
       y="258.43393"
       style="stroke-width:1.17139;fill:#e3a0a2;fill-opacity:1">A</tspan></text>
  <text
     xml:space="preserve"
     style="font-size:14.0568px;text-align:start;writing-mode:lr-tb;direction:ltr;text-anchor:start;fill:#e3a0a2;fill-opacity:1;stroke-width:1.17139"
     x="216.43848"
     y="258.48627"
     id="text30-1"
     transform="scale(0.97422028,1.0264619)"><tspan
       sodipodi:role="line"
       id="tspan30-7"
       x="216.43848"
       y="258.48627"
       style="fill:#e3a0a2;fill-opacity:1;stroke-width:1.17139">B</tspan></text>
  <text
     xml:space="preserve"
     style="font-size:14.0568px;text-align:start;writing-mode:lr-tb;direction:ltr;text-anchor:start;fill:#e3a0a2;fill-opacity:1;stroke-width:1.17139"
     x="226.05424"
     y="258.46054"
     id="text30-1-1"
     transform="scale(0.97422028,1.0264619)"><tspan
       sodipodi:role="line"
       id="tspan30-7-5"
       x="226.05424"
       y="258.46054"
       style="fill:#e3a0a2;fill-opacity:1;stroke-width:1.17139">R</tspan></text>
  <text
     xml:space="preserve"
     style="font-size:11.982px;text-align:start;writing-mode:lr-tb;direction:ltr;text-anchor:start;fill:#e3a0a2;fill-opacity:1;stroke-width:0.998493"
     x="191.39206"
     y="321.21924"
     id="text30-9"
     transform="scale(1.1429148,0.87495584)"><tspan
       sodipodi:role="line"
       id="tspan30-4"
       x="191.39206"
       y="321.21924"
       style="fill:#e3a0a2;fill-opacity:1;stroke-width:0.998493">e</tspan></text>
  <text
     xml:space="preserve"
     style="font-size:11.982px;text-align:start;writing-mode:lr-tb;direction:ltr;text-anchor:start;fill:#e3a0a2;fill-opacity:1;stroke-width:0.998493"
     x="186.47192"
     y="321.40988"
     id="text30-9-8"
     transform="scale(1.1429148,0.87495585)"><tspan
       sodipodi:role="line"
       id="tspan30-4-2"
       x="186.47192"
       y="321.40988"
       style="fill:#e3a0a2;fill-opacity:1;stroke-width:0.998493">r</tspan></text>
</svg>
